<?xml version="1.0" standalone="no"?>
<!DOCTYPE svg PUBLIC "-//W3C//DTD SVG 20010904//EN"
 "http://www.w3.org/TR/2001/REC-SVG-20010904/DTD/svg10.dtd">
<svg version="1.0" xmlns="http://www.w3.org/2000/svg"
 width="2500.000000pt" height="2500.000000pt" viewBox="0 0 2500.000000 2500.000000"
 preserveAspectRatio="xMidYMid meet">
<metadata>
Created by potrace 1.16, written by Peter Selinger 2001-2019
</metadata>
<g transform="translate(0.000000,2500.000000) scale(0.100000,-0.100000)"
fill="#000000" stroke="none">
<path d="M10928 16647 c-68 -19 -110 -56 -171 -150 -91 -140 -131 -274 -157
-532 -32 -316 -63 -537 -90 -639 -25 -99 -89 -288 -101 -300 -5 -6 -9 -27 -9
-49 0 -21 -4 -36 -9 -33 -7 5 -21 -15 -21 -30 0 -14 32 0 48 21 25 32 31 31
30 -2 0 -16 3 -38 7 -50 6 -19 4 -23 -14 -23 -11 0 -21 -4 -21 -10 0 -5 12 -7
28 -4 15 2 32 1 38 -3 16 -11 28 -53 15 -53 -6 0 -11 -7 -11 -15 0 -9 9 -15
23 -15 20 -1 20 -2 4 -11 -9 -5 -22 -7 -27 -4 -6 3 -10 -1 -10 -9 0 -23 52
-20 83 4 29 23 41 26 34 7 -2 -7 20 -39 49 -72 30 -32 54 -53 55 -45 0 8 4 5
9 -7 7 -16 18 -23 37 -23 42 0 60 -15 44 -34 -11 -13 -10 -17 5 -23 10 -4 19
-2 21 4 3 7 14 6 33 -4 17 -8 34 -12 39 -9 5 4 11 0 14 -6 3 -10 10 -8 26 6
11 11 21 14 21 8 0 -6 -4 -14 -10 -17 -5 -3 -10 -10 -10 -16 0 -5 16 1 35 13
46 30 45 45 -3 39 -9 -2 -12 4 -8 16 3 10 2 24 -3 32 -11 18 -45 6 -38 -13 3
-8 0 -21 -6 -30 -10 -13 -12 -5 -13 44 0 49 3 61 18 65 13 5 16 13 11 36 -3
19 -1 29 6 29 8 0 11 -15 9 -41 -2 -36 2 -45 27 -65 17 -13 36 -24 43 -24 14
0 16 46 2 55 -5 3 -10 35 -10 69 0 71 17 99 48 79 13 -7 26 -6 52 6 19 9 37
19 38 24 2 4 14 7 27 7 12 0 28 7 35 15 8 10 21 13 38 8 18 -4 29 -1 38 11 8
11 14 13 19 7 8 -14 52 -14 61 0 5 8 10 6 16 -5 5 -9 16 -16 23 -16 8 0 15 -4
15 -10 0 -5 11 -10 26 -10 27 0 132 -53 164 -82 11 -10 26 -18 35 -18 8 0 15
-6 15 -13 0 -14 50 -47 72 -47 7 0 0 9 -17 20 -16 11 -24 20 -17 20 28 0 9 27
-35 50 -47 24 -63 37 -63 53 0 15 44 6 64 -12 12 -11 57 -38 101 -61 44 -23
87 -49 96 -58 8 -10 26 -25 40 -34 78 -56 96 -68 117 -77 12 -6 22 -15 22 -21
0 -5 18 -19 39 -30 50 -25 91 -78 91 -117 0 -34 -13 -48 -52 -58 -16 -4 -25
-11 -23 -16 3 -4 -10 -2 -29 6 -30 13 -35 13 -40 0 -4 -12 -30 -15 -135 -15
-72 0 -154 -5 -183 -11 -69 -14 -178 -67 -251 -121 -32 -23 -68 -43 -80 -43
-16 0 -22 -6 -20 -20 1 -12 -25 -47 -68 -92 -38 -41 -85 -96 -105 -123 -32
-44 -38 -49 -65 -43 -23 4 -29 2 -29 -11 0 -10 -5 -14 -11 -11 -6 4 -8 13 -5
21 9 23 -43 39 -62 20 -13 -13 -19 -13 -44 0 -15 8 -28 19 -28 24 0 6 -5 10
-11 10 -8 0 -8 -4 0 -14 9 -10 9 -16 1 -21 -8 -5 -8 -10 0 -20 8 -10 7 -14 -2
-18 -11 -5 -11 -7 0 -15 10 -7 10 -11 -3 -22 -10 -8 -15 -9 -15 -1 0 6 -8 11
-17 11 -14 0 -15 2 -5 9 8 4 16 29 18 55 3 28 1 45 -5 42 -14 -9 -23 25 -10
40 8 10 8 14 0 14 -19 0 -26 -4 -26 -16 0 -21 -26 -42 -44 -37 -21 5 -42 -18
-22 -25 8 -3 6 -8 -6 -18 -14 -10 -14 -13 -4 -14 11 0 10 -4 -4 -13 -10 -8
-15 -19 -12 -24 4 -6 0 -16 -9 -23 -12 -10 -12 -15 -2 -21 13 -8 67 45 68 66
0 10 40 50 40 40 0 -2 -5 -16 -12 -30 -9 -21 -9 -28 1 -34 8 -6 1 -13 -24 -25
-20 -10 -39 -25 -42 -34 -4 -9 -18 -28 -31 -40 -18 -17 -22 -26 -13 -31 8 -5
4 -16 -14 -35 -14 -16 -29 -26 -32 -22 -3 3 2 15 12 26 20 22 14 26 -14 8 -16
-10 -24 -6 -56 26 -29 30 -34 40 -24 47 10 6 16 2 19 -14 3 -12 14 -23 24 -25
22 -5 68 37 62 55 -3 7 -1 13 4 13 6 0 10 9 10 20 0 16 -7 20 -35 20 -19 0
-35 -4 -35 -10 0 -5 -5 -10 -12 -10 -8 0 -7 6 4 16 15 16 49 21 78 13 10 -3
14 3 13 15 -1 11 5 26 13 33 18 18 9 33 -18 33 -19 0 -19 1 5 20 14 11 29 20
34 20 5 0 19 8 32 17 l24 16 -51 23 c-29 13 -52 27 -52 33 0 5 -12 9 -28 9
-40 -1 -72 11 -72 28 0 8 -4 14 -10 14 -16 0 -49 42 -43 56 3 8 -1 14 -10 14
-19 0 -11 39 9 47 18 6 18 70 2 76 -10 4 -10 6 0 6 17 1 15 31 -3 31 -10 0
-15 10 -15 31 0 27 -3 30 -22 24 -22 -6 -22 -5 -5 9 10 8 21 28 23 45 4 26 2
31 -16 31 -12 0 -19 4 -16 9 3 5 -1 14 -9 21 -17 14 -20 85 -4 95 13 9 6 30
-11 30 -22 0 -22 19 0 43 l21 22 -24 0 c-21 0 -25 -6 -31 -47 -4 -28 -2 -49 4
-53 5 -3 -6 -22 -27 -41 -36 -34 -37 -23 0 18 l20 22 -39 -6 c-22 -3 -46 -15
-56 -27 -11 -13 -18 -16 -18 -7 0 9 -8 12 -24 9 -15 -3 -27 0 -30 8 -15 39
-51 -24 -44 -76 3 -16 1 -30 -3 -30 -6 0 -25 -106 -21 -122 1 -5 -5 -8 -14 -8
-8 0 -30 -11 -48 -25 -18 -14 -39 -25 -45 -25 -7 0 -25 -6 -39 -14 -15 -8 -52
-26 -82 -40 -36 -16 -88 -57 -150 -116 -97 -92 -129 -110 -199 -110 -19 0 -31
-3 -28 -7 4 -3 2 -11 -3 -18 -7 -8 -1 -18 20 -34 37 -26 38 -41 5 -41 -14 0
-25 5 -25 11 0 6 -9 8 -20 4 -12 -4 -27 -1 -35 5 -8 7 -24 10 -36 7 -12 -3
-29 -2 -38 3 -18 10 -51 22 -66 25 -27 5 -28 8 -6 14 30 8 40 31 14 31 -24 0
-73 22 -73 33 0 5 9 11 20 14 11 3 20 12 20 19 0 17 -47 19 -52 3 -3 -8 -11
-8 -28 2 -14 8 -27 15 -29 16 -1 1 0 7 4 13 5 8 13 6 26 -6 15 -13 22 -15 31
-6 7 7 26 12 44 12 24 0 33 5 38 23 11 43 6 172 -10 222 -23 75 -22 179 4 243
12 29 22 64 22 78 0 24 -31 94 -53 122 -6 8 -12 35 -14 60 -7 127 -69 294
-110 300 -36 5 -162 -67 -220 -126 -28 -29 -72 -88 -97 -132 -56 -97 -88 -135
-107 -128 -8 3 -36 42 -62 87 -26 45 -65 99 -87 121 -22 22 -54 65 -71 95 -25
45 -44 63 -99 96 -98 58 -191 89 -271 89 -113 0 -174 -33 -234 -126 -49 -77
-73 -85 -140 -51 -40 22 -59 39 -79 77 -63 116 -175 166 -206 91 -8 -20 -25
-34 -54 -45 -41 -16 -96 -22 -96 -10 0 3 12 26 26 50 15 25 25 46 23 47 -2 1
-51 0 -109 -3 -72 -3 -112 -10 -127 -21 -20 -14 -93 -150 -93 -174 0 -12 -56
-50 -88 -60 -13 -4 -29 -2 -37 5 -8 6 -22 10 -32 8 -10 -2 -26 7 -37 20 -10
13 -24 21 -31 18 -7 -2 -16 -1 -21 3 -5 5 -24 11 -41 14 -38 7 -42 -5 -17 -42
13 -17 22 -21 42 -16 22 6 24 4 12 -10 -11 -13 -9 -20 15 -45 16 -17 23 -30
16 -30 -8 0 -11 -6 -7 -16 5 -14 1 -16 -30 -11 -28 5 -34 3 -26 -5 7 -7 12
-24 12 -39 0 -18 12 -37 38 -61 33 -30 37 -38 30 -63 -4 -17 -3 -34 3 -42 15
-17 -38 -40 -55 -23 -5 5 -35 10 -66 10 -47 0 -95 12 -171 44 -13 6 -16 1 -15
-24 1 -19 7 -32 19 -36 24 -8 22 -33 -2 -27 -16 4 -20 -1 -23 -28 -2 -21 -12
-39 -31 -53 -24 -18 -46 -21 -165 -24 -139 -5 -153 -8 -223 -55 -26 -17 -96
-104 -119 -147 -10 -19 -20 -20 -310 -20 l-300 0 0 -159 0 -158 -84 -5 c-91
-6 -133 -19 -100 -32 15 -6 9 -12 -33 -32 -62 -28 -71 -50 -18 -40 20 4 35 3
35 -2 0 -5 18 -10 41 -10 51 -1 57 -7 35 -31 -17 -19 -17 -20 3 -31 12 -6 21
-8 21 -4 0 3 7 1 15 -6 8 -6 19 -9 25 -5 17 11 11 25 -12 25 -25 0 -16 13 12
17 11 2 20 -1 20 -6 0 -5 9 -13 20 -16 19 -6 20 -15 20 -185 0 -133 -3 -180
-12 -184 -10 -5 -10 -7 0 -12 6 -3 12 -19 12 -34 0 -25 -4 -29 -32 -33 l-33
-3 33 -8 c38 -10 43 -26 7 -26 -14 0 -25 4 -25 9 0 12 -37 8 -72 -9 -34 -16
-58 -7 -59 22 l0 23 -9 -22 c-5 -13 -14 -23 -19 -23 -6 0 -8 -8 -4 -17 5 -15
3 -16 -8 -5 -7 6 -21 12 -31 12 -10 0 -18 7 -18 15 0 8 -4 15 -10 15 -5 0 -10
-6 -10 -14 0 -23 -22 -31 -35 -13 -7 10 -23 17 -36 17 -13 0 -32 7 -42 14 -16
12 -16 19 -6 59 8 32 15 44 25 40 9 -3 14 2 14 17 0 16 -4 20 -15 16 -19 -7
-19 -1 1 18 8 9 11 16 5 16 -6 0 -11 7 -11 15 0 8 6 15 13 15 8 0 9 3 1 8 -6
4 -14 51 -17 107 -9 171 -80 337 -204 483 -57 66 -177 167 -200 167 -10 0 -22
-18 -33 -50 -42 -122 -112 -230 -222 -343 -109 -112 -259 -198 -436 -248 -113
-32 -129 -26 -106 38 30 86 13 225 -39 318 -28 49 -115 137 -157 159 -176 91
-367 69 -503 -58 -93 -87 -138 -196 -138 -336 1 -294 191 -475 541 -516 235
-27 500 23 721 136 133 67 198 112 271 186 44 45 70 64 75 56 4 -6 9 -49 11
-94 5 -89 -7 -137 -41 -162 -10 -7 -22 -24 -27 -37 -5 -13 -17 -24 -27 -24
-15 0 -16 -2 -3 -10 12 -8 11 -10 -5 -10 -12 0 -27 -6 -34 -12 -11 -11 -12
-10 -7 0 6 10 -9 12 -70 10 -76 -3 -77 -3 -88 -34 -14 -41 -46 -76 -131 -148
-38 -32 -76 -68 -84 -80 -8 -12 -19 -24 -23 -27 -5 -3 -24 -41 -42 -85 -33
-78 -35 -80 -97 -111 -93 -47 -287 -116 -417 -149 l-112 -29 0 -287 0 -287 43
-11 c120 -30 371 -124 538 -202 75 -35 87 -43 85 -64 0 -13 -7 -24 -13 -24
-19 0 -26 -43 -21 -119 6 -87 16 -104 34 -61 8 18 12 36 9 41 -11 16 29 28 49
13 10 -7 23 -11 27 -8 5 3 7 -1 4 -8 -3 -8 11 -23 35 -38 22 -14 40 -27 40
-30 0 -3 9 -16 20 -30 17 -21 21 -23 30 -10 9 13 11 13 20 0 6 -10 6 -16 0
-18 -6 -2 -10 -8 -10 -13 0 -10 63 -81 130 -145 49 -48 44 -53 -35 -32 -24 7
-47 10 -50 7 -2 -3 -8 -20 -11 -37 -6 -29 -3 -33 32 -49 22 -10 45 -24 52 -30
17 -16 90 -36 107 -29 7 2 40 1 73 -4 59 -8 126 -40 262 -126 30 -19 63 -33
73 -30 10 2 14 0 10 -6 -4 -8 5 -9 27 -5 18 4 37 7 42 7 5 0 6 10 3 23 -3 12
-3 17 2 12 4 -6 19 -11 33 -11 14 0 32 -4 42 -8 11 -5 18 -2 21 11 5 14 5 14
4 -3 -1 -12 3 -32 9 -45 6 -13 17 -36 24 -50 7 -17 10 -48 6 -85 -3 -33 -8
-91 -12 -129 -9 -101 7 -149 67 -207 52 -51 103 -78 147 -76 15 0 37 -3 49 -7
18 -6 25 -2 35 20 6 14 26 32 42 40 27 11 29 14 12 20 -11 5 -21 3 -26 -4 -4
-7 -18 -11 -31 -9 -23 3 -23 4 11 29 19 15 47 29 63 33 25 6 29 2 54 -49 l27
-55 123 1 123 0 0 103 c0 102 0 102 30 124 16 12 36 22 44 22 9 0 37 14 63 30
53 34 59 35 77 17 11 -11 10 -17 -4 -34 -9 -11 -25 -22 -35 -24 -10 -2 -19 -8
-19 -14 -1 -16 37 -18 48 -3 6 8 25 20 43 27 20 8 30 18 26 27 -3 9 2 14 16
14 15 0 21 -6 21 -23 0 -23 3 -24 83 -24 45 -1 87 2 92 7 9 8 65 9 65 2 0 -10
-36 -37 -49 -37 -8 0 -16 -6 -19 -14 -3 -8 0 -11 6 -7 5 3 13 -1 16 -10 9 -22
8 -24 -9 -24 -9 0 -30 -7 -47 -16 l-30 -16 22 -15 c19 -13 26 -14 42 -4 11 7
23 10 26 7 6 -7 9 -5 -44 -34 -23 -12 -49 -22 -58 -22 -8 0 -30 -9 -48 -20
-18 -11 -44 -20 -57 -20 -18 0 -22 -3 -14 -11 7 -7 27 -9 50 -5 21 3 58 8 83
12 25 3 49 10 54 15 16 15 172 11 185 -5 9 -11 5 -15 -20 -20 -17 -3 -49 -6
-71 -6 -22 0 -59 -11 -86 -25 -26 -14 -53 -25 -60 -25 -7 0 -27 -8 -45 -17
-18 -9 -52 -20 -77 -24 -25 -4 -62 -12 -82 -18 -21 -6 -55 -16 -75 -22 -21 -6
-50 -13 -65 -16 -16 -3 -28 -9 -28 -14 0 -12 113 -12 126 0 5 5 29 11 54 14
63 8 139 23 178 35 18 6 40 8 48 5 8 -3 20 -1 27 4 12 11 52 19 147 33 67 10
210 39 230 46 8 4 31 8 50 9 19 2 60 9 90 15 30 7 91 14 135 17 44 2 84 9 89
14 6 5 29 9 52 9 24 0 46 5 49 10 3 6 35 10 70 10 35 0 67 5 70 10 3 6 31 10
61 10 31 0 65 5 77 12 12 6 37 10 56 10 19 -1 40 3 47 9 8 6 26 8 45 4 45 -10
132 -7 182 5 41 11 187 79 197 91 3 4 30 9 60 13 106 11 150 18 150 25 0 4
-20 8 -45 9 -25 1 -45 -3 -45 -8 0 -6 -19 -10 -42 -10 -32 0 -39 3 -28 10 8 5
27 10 42 10 15 0 30 5 33 10 3 6 16 10 28 10 13 0 33 7 45 16 12 8 26 13 32 9
5 -3 39 1 75 10 37 8 76 15 88 15 l22 -1 -24 -19 c-13 -11 -33 -20 -44 -20
-16 0 -18 -3 -9 -12 16 -16 15 -38 -1 -38 -19 0 -77 -63 -77 -83 0 -9 -11 -24
-25 -33 -14 -9 -23 -19 -20 -23 7 -12 -82 -50 -104 -44 -12 3 -21 1 -21 -3 0
-5 11 -10 25 -10 38 -3 86 -29 122 -66 27 -27 34 -46 43 -106 13 -79 36 -123
89 -168 31 -26 40 -44 21 -44 -13 0 -90 70 -90 82 0 5 -6 16 -14 23 -8 8 -17
42 -21 77 -9 72 -41 130 -84 153 -17 8 -34 15 -39 15 -12 0 -62 -47 -62 -58 0
-6 -7 -12 -15 -16 -8 -3 -15 -12 -15 -20 0 -9 -9 -20 -21 -26 -17 -10 -18 -14
-7 -27 11 -14 10 -15 -7 -10 -15 5 -27 -1 -45 -24 -14 -16 -37 -44 -52 -61
-16 -18 -28 -38 -28 -45 0 -8 -7 -16 -15 -19 -8 -4 -15 -14 -15 -24 0 -10 -10
-25 -22 -33 -19 -13 -20 -16 -6 -16 27 -1 46 -41 41 -83 -5 -34 -8 -37 -28
-32 -13 3 -26 1 -29 -5 -11 -16 -36 -13 -36 4 0 9 7 18 15 21 8 4 15 11 15 16
0 6 7 16 17 23 9 7 13 17 9 23 -8 14 -76 -36 -76 -55 0 -7 -16 -29 -35 -49
-19 -19 -35 -40 -35 -44 0 -5 -9 -12 -20 -15 -11 -3 -20 -12 -20 -18 0 -7 -13
-27 -29 -44 -15 -17 -31 -38 -34 -47 -4 -9 -13 -16 -21 -16 -13 0 -30 -39 -21
-48 8 -8 35 20 29 29 -3 5 2 9 11 9 9 0 19 9 22 20 3 11 12 20 19 20 8 0 14 7
14 15 0 8 9 19 20 25 11 6 20 15 20 21 0 5 13 22 28 37 16 15 31 35 35 45 11
30 33 9 29 -28 -3 -26 -11 -37 -33 -47 -16 -7 -29 -18 -29 -25 0 -7 -9 -17
-20 -23 -11 -6 -18 -15 -15 -20 3 -5 -4 -11 -15 -15 -11 -3 -20 -12 -20 -20 0
-7 -7 -15 -15 -19 -22 -8 -18 -32 9 -49 22 -15 25 -15 30 0 4 8 1 22 -6 31 -7
8 -8 13 -3 10 6 -2 25 -10 43 -17 43 -17 41 -39 -5 -47 -21 -3 -49 -13 -61
-21 -13 -8 -26 -12 -29 -10 -2 3 5 10 16 17 24 12 28 30 7 30 -8 0 -16 5 -18
12 -3 7 -10 8 -21 2 -16 -9 -15 -12 1 -44 16 -34 19 -35 75 -36 32 -1 56 0 53
3 -2 3 6 25 20 50 25 48 20 73 -15 73 -9 0 -4 6 13 15 16 9 31 13 34 10 3 -2
-3 -7 -12 -11 -9 -3 -13 -10 -10 -15 9 -16 22 -10 29 14 4 12 15 40 25 62 10
22 22 62 26 88 4 29 11 46 18 44 12 -4 16 -27 6 -42 -13 -19 -19 -74 -10 -80
6 -4 -3 -23 -19 -43 -15 -20 -31 -46 -34 -57 -6 -18 -5 -17 9 3 9 12 25 22 35
22 11 0 19 5 19 10 0 6 5 10 11 10 8 0 8 -4 0 -14 -15 -17 -6 -23 47 -32 l42
-7 0 107 c0 88 -3 106 -15 106 -17 0 -20 17 -4 22 6 2 13 17 15 33 19 139 20
160 10 167 -7 5 -7 8 2 8 9 0 11 7 7 21 -5 16 -3 20 6 17 11 -4 13 -24 11 -84
-2 -43 -8 -81 -13 -82 -5 -2 -6 -9 -3 -14 11 -18 4 -301 -8 -315 -12 -15 -47
-17 -68 -3 -9 6 -17 5 -21 -2 -4 -6 -18 -13 -31 -15 -17 -2 -20 -1 -8 6 22 15
8 21 -25 13 -19 -5 -31 -17 -36 -33 -6 -23 -4 -25 20 -22 19 4 22 2 12 -5 -13
-9 -13 -13 -1 -27 13 -15 11 -16 -21 -10 -32 6 -35 4 -47 -28 -16 -44 -15 -49
6 -46 24 3 72 -11 72 -22 0 -12 -14 -11 -27 2 -18 18 -35 0 -29 -30 3 -14 3
-20 0 -13 -7 15 -36 16 -52 0 -15 -15 -16 -32 -1 -23 14 10 81 -4 74 -15 -3
-5 -19 -12 -37 -15 l-31 -7 39 -18 c42 -20 66 -12 44 15 -10 12 -10 15 5 15
14 0 16 6 11 35 -5 27 -3 37 9 41 10 4 13 13 10 25 -4 13 -1 19 9 19 9 0 16 5
16 10 0 6 -7 10 -15 10 -8 0 -15 5 -15 10 0 14 7 13 35 -6 16 -10 34 -14 50
-10 18 5 35 0 55 -14 15 -11 33 -20 38 -20 18 0 24 -20 12 -35 -21 -25 7 -43
54 -34 38 7 76 -5 76 -23 0 -13 -18 -9 -23 5 -2 6 -8 9 -12 5 -10 -10 13 -38
31 -38 7 0 11 -6 8 -14 -3 -8 4 -16 18 -19 13 -4 25 -2 26 3 2 6 8 10 13 10
19 0 -2 -20 -39 -38 -43 -20 -74 -18 -65 5 5 12 1 14 -18 8 -23 -7 -24 -7 -4
9 11 8 29 16 40 16 20 1 20 1 1 15 -11 8 -32 15 -47 15 -14 0 -38 10 -53 21
-26 20 -28 20 -40 4 -9 -13 -15 -15 -20 -7 -4 7 -2 12 5 12 7 0 10 2 7 5 -3 3
-17 1 -32 -4 -29 -12 -36 -41 -9 -41 15 0 15 -1 -2 -13 -27 -21 -10 -40 28
-31 28 6 30 5 18 -10 -8 -9 -9 -16 -3 -16 6 0 12 5 14 12 2 6 10 8 17 4 9 -6
5 -12 -14 -22 -38 -19 -105 -2 -105 26 0 15 -7 20 -25 20 -19 0 -29 -10 -45
-40 -22 -42 -20 -46 11 -30 10 6 19 7 19 3 0 -9 -50 -42 -82 -55 -28 -11 -21
-36 15 -58 35 -22 52 -26 42 -10 -3 6 3 10 14 10 12 0 21 4 21 9 0 5 17 15 38
21 20 7 52 21 70 31 19 11 37 17 42 14 15 -9 43 26 31 38 -20 20 -11 26 22 15
17 -6 36 -14 41 -19 5 -4 20 1 35 12 14 10 49 22 76 25 72 8 79 12 66 28 -14
17 -4 26 28 26 19 0 47 23 111 88 74 77 93 105 150 218 93 185 145 264 176
264 22 0 140 136 184 212 43 74 47 78 105 98 94 33 91 35 131 -55 74 -168 88
-195 116 -222 25 -24 37 -28 86 -27 36 0 85 11 132 28 111 41 271 86 306 86
18 0 63 -9 100 -21 90 -28 146 -22 208 20 26 18 63 57 82 87 26 40 43 56 64
60 16 4 30 14 33 25 5 20 -7 26 -18 9 -3 -5 -19 -10 -34 -10 -15 0 -31 -4 -37
-10 -13 -13 -102 -16 -114 -4 -7 7 1 19 22 34 18 13 41 34 51 46 10 13 26 26
37 29 13 4 20 15 20 31 0 13 4 24 9 24 5 0 8 8 7 17 0 12 7 19 22 21 12 2 22
8 22 14 0 6 -10 8 -25 4 -24 -6 -35 7 -15 19 6 3 10 15 10 26 0 10 6 19 13 19
18 0 85 59 68 60 -8 0 -11 7 -8 20 5 21 -16 29 -28 10 -3 -5 -1 -10 4 -10 17
0 13 -37 -4 -44 -23 -8 -43 3 -47 27 -2 15 10 35 40 63 29 29 40 46 36 58 -4
10 -13 15 -21 12 -8 -3 -17 -6 -19 -6 -2 0 -4 -11 -4 -25 0 -14 -6 -25 -12
-25 -23 0 -98 -45 -94 -56 2 -6 -11 -19 -30 -28 -31 -14 -35 -14 -41 0 -3 9 3
21 18 32 48 32 197 192 181 192 -10 1 -3 7 15 15 17 7 34 23 38 34 3 12 13 21
22 21 8 0 20 14 26 30 9 24 17 30 40 30 15 0 30 7 33 15 5 12 9 13 21 3 11 -9
16 -9 23 3 14 21 -4 23 -82 9 -57 -10 -71 -16 -78 -35 -5 -12 -18 -25 -29 -28
-23 -6 -28 7 -8 20 6 4 17 17 23 28 12 21 97 44 171 46 57 1 74 23 34 43 -33
17 -91 22 -91 7 0 -12 -66 -34 -83 -28 -6 2 5 11 26 20 l39 17 -21 26 c-32 40
-25 49 11 15 25 -23 38 -28 63 -24 18 3 35 0 39 -6 5 -7 14 -7 31 1 20 9 22
14 14 29 -8 16 -22 19 -81 19 -87 0 -81 17 7 22 46 2 61 7 63 20 2 10 -6 19
-19 23 -26 8 -51 30 -43 37 2 3 23 -4 45 -15 34 -16 40 -24 36 -43 -3 -18 0
-24 14 -24 14 0 19 7 19 30 0 18 6 33 15 36 24 10 17 24 -10 24 -14 0 -28 7
-31 15 -7 18 -55 20 -72 3 -6 -6 -14 -9 -18 -6 -11 11 40 32 85 34 49 3 71 -8
71 -37 0 -20 29 -26 46 -10 14 14 101 61 113 61 5 0 18 -27 29 -60 17 -49 18
-60 6 -60 -23 0 -16 -20 12 -30 21 -9 25 -15 20 -35 -5 -18 -2 -25 8 -25 13 0
36 -28 36 -44 0 -3 -12 -6 -27 -7 l-28 -1 28 -10 c19 -7 26 -15 23 -26 -3 -10
-1 -24 4 -32 7 -11 10 -6 10 20 1 33 1 34 15 16 8 -11 15 -26 15 -34 0 -8 8
-21 19 -30 10 -10 28 -35 41 -57 12 -22 15 -31 6 -21 -16 19 -16 19 -16 -2 0
-16 6 -22 24 -22 26 0 90 -66 79 -83 -3 -5 -1 -7 5 -3 5 3 24 -6 41 -20 24
-20 30 -31 25 -48 -6 -18 -5 -19 8 -8 12 10 22 7 55 -17 160 -116 390 -165
602 -130 92 15 215 76 273 136 101 104 144 215 136 354 -12 244 -255 417 -507
365 -152 -32 -269 -146 -302 -296 -16 -74 -33 -77 -76 -12 -80 121 -164 356
-213 602 -50 249 -63 400 -35 400 9 0 21 11 27 25 7 16 15 22 22 16 6 -5 29
-9 51 -10 22 0 61 -4 87 -9 28 -5 51 -5 56 0 16 16 82 27 79 15 -3 -18 41 -20
58 -3 11 10 26 13 45 9 25 -5 31 -2 40 21 7 20 16 26 41 26 27 0 31 -3 26 -21
-3 -11 -1 -19 5 -17 5 2 8 6 7 8 -1 3 3 16 10 29 11 21 17 22 57 16 35 -5 44
-3 44 9 0 8 7 22 17 31 13 14 14 18 2 25 -7 5 -16 5 -19 0 -3 -5 -12 -5 -20 0
-8 6 -26 10 -39 10 -23 0 -23 1 -7 19 12 13 14 24 8 42 -9 24 3 69 19 69 18 0
21 -24 5 -36 -12 -8 -14 -14 -6 -19 6 -4 14 -4 17 -1 4 3 17 -1 31 -10 13 -9
31 -13 40 -9 15 6 15 8 -3 15 -16 6 -20 17 -21 59 -1 49 1 52 30 59 23 6 32
15 36 36 3 19 15 32 35 41 17 7 25 14 19 14 -22 2 -23 31 -3 50 12 11 18 24
15 29 -3 6 1 12 9 16 8 3 15 12 15 21 0 8 5 15 10 15 6 0 10 -4 10 -9 0 -5 10
-11 23 -14 21 -3 21 -4 -6 -15 -31 -13 -29 -26 3 -35 26 -7 44 31 30 65 -5 13
-9 19 -9 14 -1 -11 -31 13 -31 25 0 5 6 9 13 9 8 0 20 11 27 25 10 18 16 22
26 14 14 -12 48 2 58 23 5 10 7 10 12 1 4 -10 11 -10 27 -2 26 14 77 66 77 80
0 5 3 8 8 7 4 -1 17 1 30 6 27 9 29 36 2 36 -11 0 -20 -5 -20 -12 0 -6 -2 -9
-5 -6 -12 12 9 38 31 38 13 0 24 4 24 9 0 4 12 6 26 3 l27 -5 -5 96 c-3 52 -1
101 3 109 10 15 13 -27 11 -134 -1 -38 2 -68 7 -68 5 0 29 9 54 20 32 14 44
25 41 35 -8 19 10 19 28 1 9 -9 34 -12 78 -10 56 2 62 1 47 -11 -10 -7 -15
-15 -10 -18 19 -12 47 24 49 63 2 41 24 68 69 83 16 6 15 3 -5 -13 -14 -11
-28 -20 -32 -20 -14 0 -9 -60 5 -60 7 -1 5 -6 -5 -14 -23 -17 -23 -26 -1 -26
9 0 13 -3 9 -7 -4 -5 -18 -8 -29 -8 -15 0 -23 -7 -25 -21 -3 -18 1 -20 30 -17
71 9 79 13 73 33 -5 14 -2 20 9 20 9 0 16 8 16 18 0 10 7 27 15 38 8 10 15 28
15 39 0 13 3 16 11 8 7 -7 7 -17 1 -29 -6 -11 -16 -39 -23 -63 -11 -36 -11
-45 0 -49 9 -3 7 -10 -8 -26 -14 -14 -17 -26 -11 -36 7 -12 13 -9 34 13 14 16
26 32 26 38 0 5 14 12 31 16 17 3 33 11 36 18 2 7 13 11 23 8 22 -6 90 57 90
82 0 8 5 15 10 15 14 0 12 -27 -2 -34 -7 -3 -2 -4 12 -1 18 3 29 -2 38 -15 13
-22 36 -18 65 12 21 21 15 38 -14 38 -10 0 -19 5 -19 11 0 8 -14 10 -40 6 -35
-4 -39 -3 -29 9 13 16 50 19 65 5 5 -4 21 -11 36 -15 21 -5 31 0 53 25 31 37
28 54 -8 54 -32 -1 -31 -3 -13 39 14 34 14 34 -15 40 -35 7 -59 -1 -59 -20 0
-8 -4 -14 -10 -14 -5 0 -10 9 -10 19 0 10 -7 21 -15 24 -16 7 -29 -8 -21 -22
3 -5 -1 -14 -9 -21 -12 -10 -15 -9 -15 8 0 11 4 32 10 46 9 25 8 26 -22 26
-29 0 -30 -1 -13 -14 18 -13 18 -14 -3 -25 -30 -16 -48 -15 -33 3 9 10 9 16 1
21 -8 5 -8 11 1 21 9 11 7 14 -10 14 -12 0 -31 -5 -41 -10 -13 -7 -21 -7 -25
0 -3 5 -13 10 -22 10 -13 0 -15 -8 -9 -47 5 -37 4 -45 -6 -35 -7 7 -20 12 -29
12 -9 0 -22 7 -29 15 -10 12 -9 16 4 21 15 6 15 8 -1 21 -17 13 -16 14 8 9 22
-5 28 -2 33 17 10 37 7 47 -13 47 -24 0 -36 -16 -19 -23 8 -3 2 -9 -13 -15
-26 -10 -39 -36 -39 -79 0 -13 -4 -23 -10 -23 -5 0 -10 8 -10 18 0 10 -5 23
-12 30 -9 9 -8 12 5 12 9 0 17 4 17 9 0 16 -24 18 -57 4 -18 -7 -40 -13 -50
-13 -17 1 -17 1 0 15 18 13 18 14 -3 25 -21 11 -21 12 -3 25 10 7 32 15 48 17
35 4 44 23 15 31 -13 3 -28 -1 -40 -13 -10 -10 -34 -24 -54 -31 -37 -13 -44
-23 -26 -34 17 -11 11 -22 -18 -34 -22 -9 -35 -9 -55 0 -15 7 -27 15 -27 19 0
4 -28 11 -61 14 -59 7 -61 8 -39 23 13 9 18 19 12 25 -13 13 -62 -1 -62 -18 0
-8 -10 -14 -22 -15 -62 -2 -144 3 -153 11 -5 4 -26 10 -45 14 -85 16 -90 18
-90 37 0 15 -7 19 -31 19 -31 0 -69 15 -69 28 0 4 29 30 65 57 36 27 62 52 57
57 -4 4 -48 10 -97 12 -111 5 -142 13 -178 43 -26 21 -49 31 -88 36 -8 2 -20
6 -26 10 -15 9 -33 1 -33 -14 0 -6 6 -7 13 -3 9 6 9 4 -1 -8 -15 -18 -63 -11
-70 11 -3 9 2 11 17 6 24 -7 28 7 6 25 -13 11 -11 16 12 44 33 39 130 118 189
152 79 46 175 73 286 78 84 5 96 4 66 -5 -37 -11 -53 -39 -23 -39 8 0 15 -4
15 -10 0 -5 -13 -10 -30 -10 -16 0 -30 -4 -30 -9 0 -5 -9 -11 -20 -14 -26 -7
-27 -51 -2 -69 10 -7 21 -21 25 -30 3 -10 15 -18 26 -18 11 0 22 8 24 18 4 15
5 15 6 0 1 -23 44 -68 65 -68 10 0 14 -4 11 -10 -3 -5 1 -10 10 -10 9 0 28 -6
43 -14 15 -7 43 -16 63 -20 32 -6 37 -4 42 15 4 14 11 20 21 16 29 -11 46 4
46 39 0 19 -4 34 -10 34 -5 0 -10 7 -10 15 0 8 -7 15 -15 15 -8 0 -15 5 -15
10 0 6 -6 10 -14 10 -8 0 -16 5 -18 11 -2 6 -13 9 -23 7 -20 -5 -20 -5 0 -13
53 -22 63 -35 51 -60 -6 -14 -16 -25 -21 -25 -6 0 -17 -15 -25 -32 -11 -24
-15 -28 -18 -15 -2 9 -13 18 -25 18 -17 1 -15 3 7 8 53 11 44 26 -36 63 -16 7
-28 18 -28 25 0 6 -6 16 -13 20 -8 4 -16 15 -19 24 -5 12 6 20 46 32 29 10 64
17 78 17 26 0 96 22 134 41 26 13 79 -1 136 -38 21 -13 48 -25 60 -26 21 -4
24 -12 35 -100 7 -52 19 -112 27 -131 14 -35 14 -36 -4 -26 -10 5 -30 10 -44
10 -25 0 -44 16 -26 22 6 2 2 8 -9 15 -18 11 -19 10 -16 -22 2 -19 -1 -38 -6
-41 -5 -3 -9 -9 -9 -15 0 -16 18 -10 40 13 l20 22 0 -41 c0 -38 2 -41 33 -47
17 -3 45 -7 61 -9 36 -3 45 -22 14 -32 -20 -6 -21 -8 -4 -12 10 -3 23 0 29 6
7 7 26 -3 61 -33 28 -24 59 -46 69 -49 9 -4 17 -10 17 -15 0 -5 6 -9 13 -10 6
0 44 -11 82 -25 61 -21 70 -28 73 -51 3 -21 7 -26 22 -21 11 3 33 -1 50 -10
18 -9 33 -15 33 -13 22 43 21 43 139 45 329 4 690 143 876 337 l62 64 10 -37
c24 -86 6 -195 -50 -300 -31 -59 -153 -211 -168 -211 -11 0 -95 44 -110 58
-22 20 -37 8 -38 -31 -1 -35 16 -54 37 -41 6 3 16 0 24 -6 8 -6 19 -9 25 -5 5
3 10 0 10 -7 0 -17 -131 -106 -148 -100 -7 2 -17 15 -22 28 -6 14 -18 24 -29
24 -33 0 -33 17 -1 29 20 6 30 17 30 30 0 28 -17 35 -51 20 -32 -13 -52 -48
-43 -74 4 -8 1 -15 -5 -15 -10 0 -39 -23 -117 -97 -25 -22 -51 -44 -59 -47 -8
-3 -15 -12 -15 -20 0 -7 -7 -17 -16 -20 -10 -4 -14 -14 -11 -25 4 -16 -6 -24
-47 -42 -28 -12 -66 -23 -85 -24 -18 -1 -36 -7 -40 -13 -7 -12 -142 -55 -223
-72 l-58 -11 0 -62 c0 -60 -1 -63 -31 -76 -21 -9 -27 -17 -20 -24 7 -7 15 -6
26 3 8 7 18 10 22 7 3 -4 6 -101 5 -217 0 -115 3 -210 8 -210 4 0 11 -10 14
-22 7 -22 7 -22 16 -3 7 19 8 19 15 2 5 -11 10 -15 14 -8 9 14 171 -38 171
-55 0 -6 7 -17 15 -24 12 -10 15 -9 15 5 0 20 27 16 100 -16 34 -15 41 -22 30
-29 -12 -7 -11 -10 5 -15 11 -4 33 -13 49 -20 24 -11 26 -14 12 -22 -23 -13
-10 -46 15 -40 23 6 35 -9 13 -17 -12 -5 -8 -15 23 -51 20 -25 43 -45 50 -45
7 0 13 -7 13 -15 0 -20 -27 -19 -38 1 -8 14 -10 14 -16 -2 -4 -11 -2 -20 3
-22 26 -9 8 -21 -21 -15 -45 8 -47 11 -18 33 23 18 23 20 5 20 -19 1 -20 1 -1
15 18 14 18 15 -6 26 -19 8 -31 8 -48 -1 -21 -11 -21 -13 -7 -22 20 -11 22
-43 5 -54 -9 -6 -5 -10 11 -14 14 -3 27 -12 29 -19 3 -10 -3 -11 -27 -6 -39 8
-57 -1 -40 -21 8 -10 22 -13 43 -9 27 5 29 4 14 -7 -20 -17 -6 -48 21 -48 25
0 33 -11 20 -26 -13 -16 -4 -34 17 -34 11 0 13 -6 9 -20 -9 -29 23 -26 69 5
20 13 36 20 36 15 0 -12 -56 -51 -64 -43 -3 3 -6 2 -6 -4 0 -14 -38 -24 -42
-11 -5 15 -48 0 -48 -17 0 -7 -7 -15 -15 -19 -8 -3 -15 -12 -15 -21 0 -8 -6
-15 -14 -15 -16 0 -96 -75 -96 -90 0 -6 -7 -10 -16 -10 -14 0 -14 -3 -4 -15 7
-9 21 -13 31 -10 14 5 16 1 12 -14 -7 -27 -38 -22 -60 8 -13 20 -17 21 -24 8
-15 -27 -86 -9 -158 40 -35 24 -69 42 -75 40 -6 -3 -19 3 -29 11 -33 29 -203
84 -242 79 -17 -2 -40 2 -53 11 -21 14 -23 22 -22 86 3 98 3 98 -22 94 -20 -3
-23 -9 -23 -53 l-1 -50 -43 4 c-33 2 -42 -1 -39 -11 3 -8 20 -13 43 -13 35 0
38 -2 39 -28 2 -37 -8 -43 -22 -12 -15 32 -57 36 -47 5 7 -22 -5 -26 -22 -9
-15 15 -70 -9 -76 -33 -3 -10 -12 -18 -20 -18 -21 0 -29 -26 -12 -40 8 -7 12
-16 9 -21 -9 -15 25 -22 41 -9 12 10 15 10 15 0 0 -8 7 -22 17 -32 15 -17 15
-18 -6 -18 -12 0 -30 5 -40 12 -25 15 -58 3 -42 -16 10 -12 65 -30 83 -28 4 1
18 -5 33 -12 l26 -14 -26 -4 c-14 -3 -30 1 -36 8 -16 19 -69 18 -69 -1 0 -8 6
-15 13 -15 7 -1 3 -8 -8 -18 -26 -22 -26 -73 0 -102 18 -20 20 -20 32 -4 11
15 16 16 38 4 15 -8 25 -22 25 -36 0 -12 6 -25 13 -28 6 -3 -6 -3 -28 0 -36 5
-77 24 -44 21 8 -1 16 3 19 8 3 6 -16 11 -46 13 -57 3 -70 -10 -55 -51 4 -12
9 -51 10 -86 1 -36 6 -70 12 -77 21 -25 20 -69 -1 -94 -11 -13 -20 -28 -20
-34 0 -6 -13 -26 -30 -44 -16 -18 -30 -37 -30 -42 0 -5 -9 -12 -20 -15 -28 -9
-25 -35 10 -105 38 -75 60 -90 130 -90 51 0 59 -4 121 -53 103 -83 287 -164
479 -212 36 -9 82 -27 102 -40 56 -37 68 -33 70 23 0 26 1 55 0 65 -1 9 5 17
13 17 12 0 15 15 15 75 0 59 3 77 15 82 9 3 15 13 14 22 -5 59 2 93 21 98 22
6 22 30 1 25 -22 -5 0 19 27 29 21 8 24 12 12 20 -13 8 -13 11 0 18 49 30 54
38 44 62 -13 28 -5 54 16 54 8 0 14 8 14 17 -1 10 6 20 16 23 10 3 21 12 24
20 3 8 10 15 16 15 14 0 13 -33 -2 -48 -8 -8 -8 -15 2 -27 7 -8 10 -26 8 -40
-3 -14 -1 -28 4 -31 4 -3 6 -10 3 -15 -4 -5 1 -9 9 -9 9 0 16 -9 16 -20 0 -11
7 -20 15 -20 8 0 15 -9 15 -20 0 -15 7 -20 26 -20 21 0 24 -4 19 -20 -6 -20 1
-24 38 -21 9 1 17 -4 17 -12 0 -17 21 -27 56 -27 21 0 24 -4 19 -20 -5 -15 -2
-20 12 -20 11 0 24 5 31 12 8 8 15 8 27 -2 8 -7 26 -10 39 -8 15 3 27 0 30 -8
3 -8 17 -14 32 -14 14 0 38 -9 52 -19 15 -10 32 -20 37 -21 6 -2 18 -5 28 -8
9 -2 17 -9 17 -16 0 -6 10 -20 23 -32 24 -23 67 -37 67 -23 0 5 5 9 11 9 6 0
9 -6 6 -14 -3 -8 1 -20 9 -27 11 -9 18 -8 33 5 16 14 20 15 30 2 10 -12 9 -20
-6 -43 -17 -26 -18 -27 -21 -5 -2 12 -11 22 -20 23 -9 0 -34 2 -54 5 -20 2
-39 0 -43 -6 -9 -15 -25 -2 -25 21 0 11 -7 19 -16 19 -8 0 -13 4 -10 8 2 4 -9
9 -25 10 -31 2 -40 -14 -13 -25 8 -3 20 -17 25 -30 5 -13 13 -21 19 -18 5 3
10 -3 10 -13 0 -11 -9 -22 -20 -25 -12 -3 -18 -11 -15 -19 3 -8 -4 -25 -16
-39 -18 -20 -18 -24 -5 -27 9 -2 16 -7 16 -12 0 -4 -9 -6 -20 -3 -11 3 -27 2
-36 -1 -15 -6 -15 -8 2 -27 18 -20 18 -21 1 -30 -20 -12 -14 -29 10 -29 25 0
107 91 91 102 -10 6 -10 10 -2 16 7 4 10 21 8 39 -3 27 1 33 30 47 42 20 50
20 66 1 9 -10 9 -15 1 -15 -6 0 -25 -14 -43 -30 -17 -16 -28 -30 -24 -30 16 0
52 24 75 49 l24 26 -8 -40 c-4 -22 -11 -42 -15 -45 -5 -3 -11 -17 -15 -32 -4
-15 -15 -34 -25 -43 -10 -9 -16 -23 -13 -31 3 -8 0 -14 -6 -14 -6 0 -17 -11
-23 -25 l-11 -25 -15 22 c-14 19 -13 22 3 34 22 16 16 18 -19 4 -14 -5 -26
-17 -26 -26 0 -11 -5 -14 -17 -9 -43 18 -56 18 -50 3 3 -9 0 -21 -6 -27 -14
-14 -10 -17 43 -25 l45 -6 -25 20 c-30 23 -23 26 16 5 16 -8 25 -15 19 -15 -5
0 3 -9 19 -20 38 -24 119 -44 150 -36 29 7 38 25 45 95 l6 53 186 63 c102 34
197 70 212 80 51 33 69 71 78 162 10 95 35 152 82 187 25 18 43 21 132 21 57
0 107 3 111 7 3 4 9 39 12 78 3 46 9 69 16 67 6 -2 31 -45 56 -95 l44 -92 123
0 123 0 0 665 c0 537 2 665 13 665 7 0 29 -17 49 -38 20 -21 61 -54 92 -73 30
-19 60 -44 67 -56 7 -13 33 -30 58 -40 80 -30 173 -86 221 -133 40 -39 48 -53
54 -98 6 -50 5 -56 -24 -88 -50 -58 -40 -103 44 -184 31 -30 56 -62 56 -72 0
-10 -10 -38 -21 -60 -52 -102 -61 -145 -65 -320 -4 -191 -8 -180 87 -229 46
-23 62 -37 75 -67 27 -62 33 -148 21 -297 -6 -77 -7 -153 -3 -170 7 -29 8 -28
33 30 49 116 65 171 73 247 4 43 13 84 20 93 18 22 83 19 105 -5 19 -21 19
-25 -15 -135 -15 -47 -24 -118 -31 -220 -5 -82 -11 -179 -14 -215 -7 -87 18
-134 91 -171 62 -31 124 -91 124 -119 0 -11 -4 -20 -9 -20 -4 0 -21 -18 -36
-40 -26 -38 -28 -44 -21 -117 3 -42 8 -78 11 -81 10 -10 38 24 65 78 41 81 50
86 87 47 27 -28 83 -147 83 -176 0 -6 4 -11 8 -11 4 0 14 -16 21 -35 16 -44
55 -75 95 -75 38 0 144 65 169 104 24 35 21 94 -5 136 -18 29 -22 48 -21 108
1 43 8 86 18 104 8 17 16 41 16 52 1 17 2 18 6 4 3 -10 14 -18 27 -18 61 0 90
-62 70 -150 -7 -30 -13 -58 -14 -62 0 -4 17 -10 38 -14 67 -12 87 -29 125
-106 30 -62 50 -85 134 -159 157 -137 199 -150 338 -104 103 35 145 56 145 73
0 8 -16 29 -35 48 -19 18 -35 35 -35 37 0 2 -16 22 -35 43 -19 21 -35 45 -35
55 0 9 -7 22 -15 29 -8 7 -15 18 -15 25 0 6 -9 22 -20 35 -11 13 -20 29 -20
35 0 7 -9 15 -21 18 -16 4 -19 11 -14 27 5 16 2 23 -14 27 -12 3 -21 11 -21
17 0 6 -13 26 -30 44 -16 18 -30 35 -30 36 0 9 -98 105 -117 115 -13 6 -23 16
-23 22 0 6 -16 25 -35 43 -19 19 -35 38 -35 45 0 6 -4 11 -10 11 -5 0 -10 7
-10 15 0 19 -29 32 -39 18 -4 -7 -11 -6 -19 3 -11 12 -9 16 13 24 34 13 33 34
-1 27 -26 -5 -94 17 -94 29 0 4 12 4 28 1 15 -2 36 -1 47 3 17 8 16 9 -8 9
-15 1 -42 8 -58 17 -38 19 -57 13 -61 -20 -3 -24 -4 -25 -28 -11 -66 38 -71
39 -79 26 -6 -9 -11 -10 -15 -2 -4 6 -16 11 -27 11 -12 0 -19 7 -19 20 0 18
-2 19 -22 8 -13 -7 -29 -20 -36 -28 -10 -11 -15 -12 -18 -2 -3 6 -14 12 -24
12 -9 0 -24 10 -32 22 -13 20 -17 21 -32 9 -14 -12 -16 -11 -16 6 0 21 -41 58
-63 58 -13 0 -77 77 -77 93 0 22 -33 72 -48 72 -15 0 -15 2 -2 10 13 9 11 13
-9 29 -17 13 -22 24 -17 39 4 11 3 23 -3 26 -5 3 -7 16 -4 27 4 14 0 25 -11
31 -10 6 -16 22 -16 48 0 23 -6 42 -14 47 -8 4 -16 26 -18 48 -2 31 -7 41 -23
43 -18 2 -20 9 -17 82 3 74 5 80 25 81 12 0 69 1 127 2 l105 2 5 275 5 275 25
3 c13 2 40 -1 60 -7 l35 -10 -3 -76 c-3 -64 -6 -75 -22 -75 -11 0 -20 -10 -23
-27 -6 -33 -5 -35 25 -37 30 -1 38 -51 11 -71 -21 -15 -15 -25 16 -28 11 -1
21 -7 21 -14 0 -7 16 -38 36 -69 34 -52 110 -114 141 -114 7 0 13 -7 13 -16 0
-14 7 -15 43 -10 26 4 37 3 28 -3 -20 -13 2 -22 38 -16 23 4 31 2 31 -10 0
-10 9 -15 28 -15 24 1 25 2 10 14 -23 17 -23 22 3 29 13 3 28 -2 40 -14 10
-10 25 -19 33 -19 21 0 28 28 9 38 -24 14 2 25 43 18 20 -4 34 -13 34 -22 0
-8 7 -17 15 -20 8 -4 15 -12 15 -19 0 -15 -38 -27 -46 -14 -8 13 -44 11 -44
-2 0 -6 9 -13 20 -16 22 -6 27 -29 8 -36 -10 -4 -10 -6 0 -6 7 -1 12 -14 12
-31 0 -18 5 -30 13 -30 9 0 12 11 9 35 -6 52 2 66 30 53 25 -12 35 -67 14 -80
-8 -5 -7 -11 2 -20 21 -21 13 -29 -20 -22 -64 12 -81 12 -99 1 -16 -10 -24 -7
-53 26 l-34 38 -6 -26 c-4 -14 -13 -25 -21 -25 -12 0 -14 -7 -9 -27 10 -43 24
-51 24 -15 0 27 4 32 25 32 21 0 25 -5 25 -30 l0 -29 26 26 c30 30 32 28 38
-19 6 -46 -14 -56 -54 -28 -33 23 -54 26 -47 6 3 -8 1 -17 -6 -20 -7 -2 5 -5
26 -5 22 -1 40 -7 43 -15 3 -8 22 -17 42 -21 30 -6 33 -9 18 -14 -18 -7 -18
-8 -2 -14 9 -4 16 -12 15 -19 -1 -7 3 -26 9 -41 16 -37 15 -42 -3 -27 -13 11
-14 10 -9 -4 5 -12 0 -16 -19 -16 -14 0 -27 6 -30 13 -2 6 -8 8 -13 4 -14 -13
38 -48 53 -35 7 6 22 8 32 5 14 -3 18 -1 14 10 -5 13 0 12 23 -3 41 -26 41
-26 14 -23 -38 4 -92 -20 -88 -40 2 -11 15 -17 43 -18 33 -2 36 -1 18 7 -35
14 -27 30 12 27 19 -1 35 -5 35 -9 0 -5 -4 -8 -9 -8 -5 0 -7 -8 -4 -18 7 -29
-22 -47 -52 -34 -15 7 -25 8 -25 2 0 -5 -14 -17 -31 -26 -23 -12 -34 -13 -43
-4 -8 8 -7 13 4 20 12 7 12 12 2 22 -6 6 -12 27 -12 45 0 39 -26 58 -62 44
-13 -6 -18 -10 -12 -10 7 -1 14 -10 17 -21 3 -11 12 -20 19 -20 11 0 14 -14
14 -59 -1 -53 0 -58 16 -50 38 20 54 11 55 -31 1 -22 -2 -40 -6 -40 -5 0 -12
-7 -15 -16 -5 -13 -1 -15 18 -12 18 4 28 -2 40 -24 22 -35 51 -51 82 -44 13 4
33 2 43 -4 14 -7 21 -6 25 3 3 7 7 3 11 -10 4 -13 15 -23 26 -23 27 0 8 44
-21 48 -23 4 -74 51 -65 60 3 3 15 -4 28 -16 17 -17 26 -19 35 -10 13 13 46
-8 39 -26 -9 -22 17 -32 52 -20 25 8 29 12 17 17 -21 8 -21 33 1 41 11 4 22 1
29 -8 15 -22 57 -20 78 3 17 19 16 20 -36 35 -52 16 -107 43 -63 32 11 -3 37
-8 58 -12 20 -3 37 -10 37 -16 0 -5 5 -6 10 -3 12 7 -42 65 -60 65 -10 0 -10
3 0 14 9 12 7 18 -9 32 -11 10 -18 21 -16 24 7 11 108 -2 131 -17 12 -7 35
-18 52 -22 25 -8 30 -6 25 5 -3 8 0 14 6 14 6 0 11 7 11 15 0 23 24 18 50 -9
12 -14 35 -28 50 -31 15 -3 40 -19 55 -35 35 -36 51 -38 57 -6 3 17 -4 32 -28
54 -18 17 -35 45 -39 61 -4 17 -16 38 -28 46 -12 8 -16 15 -9 15 6 0 21 -9 33
-21 12 -12 26 -22 33 -23 22 -3 148 -77 178 -104 16 -15 65 -62 108 -104 44
-42 95 -84 115 -94 19 -9 35 -22 35 -29 0 -11 38 -32 48 -26 2 1 22 -17 72
-64 31 -29 90 -44 90 -22 0 8 -15 20 -32 27 -18 7 -52 31 -75 53 -22 22 -46
36 -52 33 -6 -4 -11 -3 -11 3 0 5 -13 18 -30 28 -16 9 -30 21 -30 25 0 10 -49
58 -60 58 -6 0 -10 7 -10 15 0 9 -16 31 -35 51 -19 19 -35 39 -35 44 0 6 -6
10 -14 10 -7 0 -16 9 -19 20 -3 11 -12 20 -21 20 -9 0 -16 7 -16 15 0 9 -7 18
-15 21 -8 4 -15 13 -15 20 0 8 -7 17 -15 20 -8 4 -15 12 -15 20 0 8 -4 14 -10
14 -5 0 -10 4 -10 10 0 12 -32 50 -41 50 -4 0 -18 9 -31 21 -24 21 -90 49
-119 49 -24 0 -152 69 -168 91 -7 10 -18 19 -23 19 -6 0 -44 23 -85 50 -41 28
-79 50 -84 50 -5 0 -9 6 -9 13 0 7 -16 21 -35 31 -19 11 -35 24 -35 31 0 7
-17 20 -37 31 -21 10 -46 26 -57 34 -10 8 -21 13 -25 11 -3 -2 -10 6 -16 18
-5 12 -18 24 -27 27 -25 8 -22 19 10 39 91 60 228 206 326 350 26 39 55 77 64
85 10 9 18 21 20 28 2 11 36 73 119 217 28 49 29 36 3 -41 -84 -243 -122 -555
-86 -708 44 -185 153 -274 322 -264 127 8 237 80 410 268 116 126 277 360 394
572 60 109 67 117 95 118 17 0 44 4 61 9 18 5 37 5 47 0 10 -6 30 -4 57 7 32
13 43 14 55 4 10 -8 28 -10 52 -5 31 5 34 8 20 16 -26 15 -21 28 18 46 22 11
35 23 33 33 -3 13 -24 14 -157 11 l-153 -4 68 129 67 129 86 -3 c103 -4 208
11 310 45 75 25 77 25 194 7 50 -8 50 15 -1 37 l-37 15 32 17 c37 19 86 22
131 6 29 -10 30 -12 20 -42 -16 -49 -47 -256 -47 -315 -3 -237 103 -462 254
-540 42 -21 64 -26 135 -26 77 0 91 3 150 33 88 45 268 227 380 383 46 65 85
116 87 114 2 -2 -14 -68 -36 -147 -72 -262 -85 -337 -85 -514 -1 -177 10 -234
63 -317 57 -90 136 -131 256 -131 131 0 236 48 388 180 103 90 337 367 491
582 114 161 567 906 570 939 0 9 -7 18 -16 20 -18 3 -59 -55 -141 -198 -21
-36 -52 -87 -69 -115 -17 -27 -76 -122 -131 -210 -245 -393 -538 -783 -705
-935 -122 -113 -256 -182 -314 -165 -71 22 -93 81 -92 240 1 97 7 144 32 245
58 239 194 605 366 990 53 118 96 217 96 220 0 12 -106 31 -169 31 -82 1 -155
-25 -200 -70 -21 -21 -67 -96 -110 -181 -176 -346 -369 -630 -535 -787 -102
-97 -170 -134 -250 -136 -93 -2 -141 48 -155 158 -24 196 76 547 258 909 163
324 335 528 475 567 81 22 168 -33 200 -127 20 -60 20 -98 0 -156 -17 -50 -54
-92 -61 -70 -3 7 -16 26 -30 42 -27 32 -75 40 -115 19 -26 -14 -49 -69 -41
-100 18 -73 97 -91 188 -41 39 21 57 40 80 82 28 51 30 63 30 155 0 113 -13
148 -81 219 -59 61 -112 80 -224 79 -149 0 -271 -45 -406 -148 -124 -96 -251
-253 -340 -424 -26 -49 -46 -76 -63 -83 -20 -7 -22 -11 -11 -18 13 -8 12 -12
-5 -24 -11 -9 -35 -21 -52 -28 -18 -7 -33 -15 -33 -20 0 -4 -14 -15 -32 -24
-25 -13 -39 -14 -62 -6 -17 5 -48 13 -70 17 -21 3 -52 12 -70 19 -17 8 -49 19
-71 26 -53 16 -166 59 -187 71 -10 5 -28 9 -41 9 -34 0 -47 19 -47 67 l0 43
53 0 c30 0 80 9 113 19 67 22 93 26 114 19 101 -34 102 -33 102 42 0 50 1 51
42 71 57 29 94 66 102 103 3 17 17 42 30 56 28 31 54 100 54 147 0 40 -22 86
-59 127 -50 54 -91 54 -136 -1 -18 -21 -30 -25 -93 -28 -90 -3 -118 -24 -128
-94 -6 -38 -15 -54 -58 -93 l-51 -48 -17 21 c-29 34 -27 190 3 381 24 149 41
210 60 219 8 4 31 14 52 23 31 13 37 21 37 45 0 37 -30 100 -48 101 -7 0 -37
16 -67 36 -69 46 -112 48 -163 6 -48 -38 -51 -57 -12 -97 l31 -32 -41 -33
c-44 -35 -68 -75 -94 -160 -32 -102 -47 -130 -72 -130 -19 0 -26 10 -44 65
-23 68 -21 109 6 152 26 41 55 142 56 193 2 73 -28 102 -110 107 -57 3 -61 2
-123 -46 -136 -102 -153 -144 -99 -245 21 -39 26 -56 17 -56 -8 0 -49 -16 -91
-36 -119 -55 -167 -37 -181 66 l-7 46 52 24 c101 47 132 109 130 260 -1 67 5
125 15 160 21 75 19 99 -11 156 -29 57 -58 84 -88 84 -26 0 -162 128 -200 189
-49 77 -82 75 -117 -6 -16 -38 -22 -43 -51 -43 -22 -1 -45 -11 -68 -30 -64
-56 -92 -32 -109 94 -12 86 -32 129 -68 145 -13 6 -59 11 -101 11 -126 0 -280
38 -321 78 -63 62 -76 92 -76 172 0 77 14 114 64 180 36 47 35 63 -10 114 -46
52 -51 78 -25 141 9 21 16 41 16 46 0 15 -54 -2 -70 -22 -17 -20 -102 -59
-130 -59 -11 0 -24 9 -30 20 -9 16 -21 20 -62 20 -46 0 -49 1 -37 17 12 15 12
16 -4 10 -9 -3 -28 -2 -41 4 -19 9 -31 8 -57 -5 -17 -9 -39 -16 -48 -16 -24 0
-101 -43 -101 -56 0 -15 -23 -25 -80 -35 -25 -4 -61 -11 -80 -16 -19 -5 -66
-7 -103 -5 l-69 4 8 26 c6 24 15 159 15 235 0 33 -30 78 -51 74 -22 -3 -24
-36 -5 -57 9 -10 15 -25 13 -33 -5 -22 -48 -2 -48 22 0 20 -35 47 -123 93 -22
11 -36 12 -63 4 -32 -10 -35 -14 -32 -43 4 -32 -5 -43 -17 -23 -9 14 -25 12
-25 -3 0 -7 -8 -20 -17 -28 -39 -34 -73 -80 -73 -96 0 -14 2 -15 9 -4 7 11 10
11 16 0 6 -8 1 -18 -13 -27 -15 -9 -22 -25 -22 -44 0 -22 -4 -29 -14 -25 -9 4
-17 -1 -20 -11 -3 -10 -28 -32 -56 -50 -45 -29 -49 -36 -44 -60 4 -15 11 -35
16 -45 15 -29 2 -31 -19 -3 -16 20 -25 23 -49 18 -54 -12 -118 -63 -162 -130
l-44 -65 44 6 c41 6 42 6 21 -9 -25 -18 -30 -34 -10 -34 7 0 30 -9 52 -20 22
-11 44 -20 50 -20 5 0 16 9 23 20 13 22 32 27 32 9 0 -13 -40 -48 -56 -49 -6
0 -25 7 -43 16 -18 9 -34 14 -37 12 -10 -11 39 -58 61 -58 13 0 26 -4 30 -10
3 -5 -10 -7 -32 -5 -21 2 -142 4 -270 4 -184 1 -231 4 -227 14 5 15 -46 97
-61 97 -16 1 -60 38 -53 45 8 8 68 -22 68 -34 0 -13 32 -23 39 -12 3 5 23 16
44 24 20 9 37 23 37 31 0 8 20 27 45 42 25 14 45 30 45 36 0 5 -3 7 -8 4 -4
-2 -16 3 -27 11 -20 16 -20 16 0 9 47 -17 75 -19 75 -5 0 8 15 23 34 33 34 18
38 40 12 58 -17 12 12 10 35 -3 16 -8 18 -13 9 -25 -10 -11 -9 -15 5 -20 9 -4
22 -1 28 6 9 10 9 14 -1 17 -9 4 -10 8 -2 18 6 7 10 17 9 21 -1 5 1 17 5 27
12 27 -1 47 -30 47 -15 0 -36 7 -46 17 -16 14 -18 14 -18 0 0 -9 9 -19 20 -22
41 -13 19 -25 -35 -19 -35 4 -55 3 -55 -4 0 -5 7 -12 15 -16 22 -8 18 -33 -7
-50 -31 -22 -55 -20 -61 5 -5 20 -7 20 -29 5 -29 -21 -51 -20 -71 2 -21 23
-22 52 -3 52 7 0 26 7 42 15 24 12 25 15 11 21 -10 3 -31 4 -47 1 -16 -4 -32
-2 -35 3 -3 6 -1 10 6 10 7 0 9 3 6 6 -10 10 -67 -17 -67 -31 0 -15 -22 -25
-53 -25 -21 0 -21 -1 6 -24 34 -29 34 -33 -3 -41 -16 -4 -30 -13 -30 -20 0 -8
-9 -19 -21 -25 -18 -10 -20 -20 -19 -83 1 -47 -4 -85 -14 -110 -18 -42 -16
-52 14 -60 18 -5 20 -2 14 28 -4 21 0 43 10 61 17 32 18 29 17 -65 0 -72 -4
-80 -26 -57 -21 20 -45 21 -45 1 0 -8 -4 -15 -10 -15 -5 0 -10 10 -10 23 0 12
-9 28 -20 35 -12 7 -20 8 -20 2 0 -5 5 -10 10 -10 6 0 10 -7 10 -16 0 -8 -4
-12 -10 -9 -5 3 -10 -1 -10 -9 0 -12 -11 -15 -50 -15 -35 1 -50 6 -50 15 0 8
-9 14 -21 14 -15 0 -19 -5 -15 -15 4 -12 -3 -15 -37 -14 -23 1 -32 4 -20 6 14
3 20 9 17 18 -4 9 4 17 21 21 19 5 25 12 22 25 -3 10 1 20 9 23 8 3 14 19 14
36 0 29 14 42 22 19 2 -5 19 17 38 50 26 46 41 61 58 61 13 0 22 -6 22 -15 0
-8 5 -15 10 -15 6 0 10 -11 10 -24 0 -13 7 -27 16 -30 14 -5 15 3 10 61 -3 38
-5 75 -6 85 0 11 -6 15 -20 11 -17 -4 -20 0 -20 26 0 23 -4 29 -15 25 -8 -4
-15 -2 -15 4 0 19 30 34 60 30 16 -3 30 -1 30 4 0 4 -9 8 -20 8 -21 0 -22 1
-22 40 -1 51 2 60 22 60 11 0 20 5 20 10 0 6 -9 10 -20 10 -13 0 -20 7 -20 20
0 11 4 20 9 20 6 0 13 20 17 45 6 43 24 54 24 14 0 -10 6 -19 14 -19 8 0 21
-2 28 -5 20 -8 11 66 -9 82 -13 10 -13 15 -4 27 7 8 11 27 9 43 -3 25 0 28 30
31 30 3 32 5 32 43 0 26 -5 42 -15 45 -22 9 -21 102 1 111 15 6 15 7 -1 19
-14 10 -22 11 -32 3 -19 -17 -16 -7 10 29 13 17 27 29 30 26 3 -3 15 -3 26 1
17 5 21 15 21 50 0 35 4 44 21 48 16 4 20 11 16 27 -6 22 18 41 40 33 16 -6
34 38 27 63 -3 13 5 25 26 39 16 11 30 28 30 37 0 10 9 22 20 28 11 6 20 17
20 25 0 8 7 15 16 15 9 0 18 9 21 20 3 11 12 20 19 20 8 0 14 5 14 10 0 6 7
10 15 10 8 0 15 7 15 15 0 8 9 15 19 15 11 0 27 8 37 17 13 13 18 15 22 5 3
-10 7 -10 18 -1 10 8 12 22 8 45 -5 26 -2 34 14 43 25 13 74 17 89 8 7 -5 25
-2 40 6 49 25 81 29 95 11 38 -46 50 -55 67 -49 16 5 20 -2 25 -40 4 -25 9
-45 12 -45 3 0 17 8 32 17 38 25 82 81 98 126 3 9 10 17 14 17 8 0 46 57 66
100 6 14 21 35 33 48 12 12 33 45 47 72 14 28 29 50 35 50 5 0 9 8 9 17 0 9 7
25 16 35 20 21 14 24 -67 31 -32 3 -78 16 -107 31 -109 55 -154 45 -279 -63
l-69 -59 -33 16 c-18 8 -52 41 -74 71 -52 69 -54 71 -98 71 -31 0 -41 -6 -65
-37 -44 -60 -87 -102 -116 -114 -26 -10 -32 -8 -80 36 -105 95 -150 107 -199
54 -16 -17 -29 -39 -29 -48 0 -33 -9 -39 -395 -247 -38 -20 -97 -48 -129 -61
-59 -23 -59 -23 -73 -3 -8 11 -27 27 -43 35 -41 21 -60 43 -60 70 0 29 -66 88
-135 121 -60 28 -147 32 -203 8 -63 -27 -219 -6 -461 62 -110 32 -123 31 -81
-4 42 -35 38 -48 -33 -100 -30 -22 -61 -56 -70 -75 -15 -32 -21 -35 -74 -40
-74 -8 -104 -30 -126 -98 -20 -58 -46 -93 -89 -115 -42 -22 -69 -17 -115 20
-23 18 -57 39 -74 46 -29 13 -33 12 -51 -10 -30 -37 -20 -62 31 -77 24 -7 49
-18 57 -24 23 -19 17 -73 -12 -100 -23 -21 -35 -24 -112 -25 l-87 -1 -3 -83
c-1 -58 -10 -104 -28 -154 -62 -173 -60 -155 -40 -275 10 -60 16 -119 13 -131
-3 -12 0 -63 8 -114 20 -129 12 -170 -41 -220 -42 -40 -42 -41 -27 -70 23 -43
11 -100 -34 -165 -47 -68 -75 -74 -110 -22 -29 42 -29 66 -2 133 23 56 26 86
54 501 13 210 13 241 0 273 -8 19 -24 43 -35 52 -19 16 -20 21 -10 66 15 69 2
81 -88 78 -95 -5 -196 -54 -234 -115 -16 -24 -28 -53 -28 -63 0 -11 -20 -37
-45 -57 -36 -30 -48 -49 -61 -95 -22 -76 -37 -104 -98 -187 -29 -38 -61 -91
-71 -117 -9 -26 -22 -45 -26 -42 -23 14 -42 76 -54 169 -7 62 -19 112 -30 129
l-18 27 -18 -27 c-10 -16 -23 -51 -29 -78 -24 -104 -26 -105 -59 -46 -21 38
-21 41 -6 94 17 59 13 117 -11 137 -8 6 -14 18 -14 25 0 8 -4 14 -8 14 -5 0
-23 14 -40 31 -18 17 -38 29 -45 26 -10 -4 -13 2 -9 19 3 15 0 24 -8 24 -18 0
-90 53 -90 67 0 6 -9 14 -19 18 -33 10 -91 72 -85 89 4 10 1 16 -7 16 -8 0 -5
6 7 15 16 13 17 16 4 25 -8 5 -23 10 -33 10 -10 0 -32 14 -49 30 -32 32 -48
36 -76 19 -15 -9 -23 -8 -40 7 -27 23 -28 44 -2 44 11 0 20 -7 20 -15 0 -8 7
-15 15 -15 8 0 15 8 15 17 0 9 8 25 17 35 16 17 15 19 -15 30 -32 12 -44 42
-19 51 10 4 10 7 0 18 -11 11 -13 10 -13 -3 0 -9 -9 -20 -20 -23 -11 -3 -20
-11 -20 -16 0 -5 -4 -9 -9 -9 -6 0 -17 26 -26 58 -43 151 -67 211 -237 570
-57 120 -167 173 -290 139z m590 -986 c12 5 22 15 22 24 0 8 5 15 10 15 6 0
10 7 10 15 0 18 16 20 26 4 4 -7 0 -15 -8 -20 -9 -5 -23 -20 -33 -35 l-17 -26
34 7 33 6 -35 -23 c-26 -17 -30 -24 -18 -26 10 -2 20 -12 23 -23 7 -22 16 -24
33 -7 8 8 10 3 6 -24 -7 -40 13 -65 23 -29 3 12 11 21 18 21 7 0 18 7 26 16
11 14 13 14 21 0 5 -9 13 -16 19 -16 5 0 28 -12 52 -27 23 -15 53 -26 67 -25
22 1 23 0 8 -11 -16 -13 -16 -14 0 -29 9 -9 29 -31 45 -49 15 -18 27 -28 27
-21 0 7 3 12 8 12 4 0 7 -11 7 -25 0 -34 -33 -27 -80 19 -20 20 -46 36 -56 36
-11 0 -18 4 -15 9 3 5 -2 15 -11 22 -10 8 -18 10 -20 4 -12 -35 -21 -38 -52
-16 -17 12 -31 31 -31 42 0 10 -7 19 -15 19 -8 0 -15 -7 -15 -15 0 -9 -10 -15
-26 -15 -19 0 -25 4 -20 15 3 9 -1 18 -9 21 -8 4 -15 17 -15 30 0 24 -23 33
-35 14 -4 -6 -11 -8 -16 -4 -6 3 -4 11 5 17 10 8 13 17 7 26 -13 20 -31 4 -32
-27 l0 -27 -11 25 c-12 29 -13 145 -1 163 5 7 10 -4 13 -29 5 -38 7 -41 28
-33z m3186 -95 c17 -4 42 -16 57 -27 15 -10 38 -19 51 -19 13 0 29 -5 36 -12
7 -7 12 -8 12 -3 0 4 8 1 18 -7 14 -13 57 -29 84 -32 4 -1 13 -7 20 -13 6 -7
22 -13 35 -13 13 0 31 -4 41 -9 33 -17 89 -31 121 -31 41 0 71 -16 71 -38 0
-10 4 -22 10 -28 12 -12 -8 -81 -26 -88 -8 -3 -22 4 -33 15 -16 17 -24 18 -61
10 -23 -5 -48 -19 -56 -30 -8 -11 -31 -23 -52 -26 -47 -8 -82 -25 -82 -41 0
-6 -15 -19 -34 -28 -18 -9 -36 -25 -39 -37 -3 -12 -10 -18 -16 -14 -6 3 -8 0
-5 -9 3 -9 -2 -17 -15 -21 -11 -3 -34 -19 -52 -36 -41 -39 -70 -45 -92 -21
-10 11 -38 28 -62 38 -25 10 -45 22 -45 26 0 14 -22 9 -87 -22 -35 -17 -66
-37 -69 -45 -3 -8 -21 -24 -40 -36 -19 -11 -34 -29 -34 -39 0 -11 -7 -23 -16
-28 -14 -8 -14 -13 -4 -32 7 -12 7 -20 2 -16 -6 3 -20 -6 -31 -22 -16 -24 -18
-35 -11 -68 13 -55 12 -62 -7 -60 -12 0 -19 -7 -21 -21 -2 -13 2 -23 8 -23 7
0 5 -6 -4 -16 -17 -16 -22 -44 -8 -44 4 0 5 -21 3 -47 -2 -36 -11 -55 -32 -77
-20 -21 -29 -40 -29 -63 0 -19 -4 -32 -9 -28 -13 7 -32 -30 -25 -48 6 -16 51
-20 60 -6 3 5 9 7 14 4 15 -9 50 14 51 33 0 10 3 12 6 5 2 -7 14 -13 26 -13
13 0 17 -3 11 -8 -7 -4 -19 -28 -27 -53 -77 -226 -262 -430 -482 -529 -33 -16
-106 -42 -163 -60 -123 -38 -138 -34 -115 33 24 70 14 208 -21 284 -15 34 -36
69 -47 79 -18 17 -16 25 19 57 7 7 25 23 41 37 15 14 30 33 34 43 4 11 17 17
36 17 29 0 30 0 15 28 -7 15 -14 33 -14 40 0 6 -5 12 -11 12 -5 0 -8 4 -4 9 3
5 0 13 -6 16 -6 4 -27 -9 -48 -29 -20 -20 -42 -36 -49 -36 -7 0 -12 -6 -12
-14 0 -7 -19 -26 -42 -42 -24 -16 -44 -32 -46 -36 -2 -3 -32 7 -67 23 -35 17
-93 35 -129 41 -41 7 -66 16 -66 24 0 7 -6 14 -12 17 -9 3 -6 10 10 22 16 12
22 26 22 55 0 21 5 42 11 45 5 4 8 12 6 18 -2 7 5 27 15 45 10 18 18 46 18 62
0 16 11 55 24 87 29 70 56 159 56 183 0 9 9 27 20 40 11 13 20 28 20 35 0 6
11 22 25 35 21 20 28 22 50 12 14 -6 25 -20 25 -30 0 -26 10 -33 31 -21 19 10
27 49 9 49 -5 0 -21 12 -35 26 l-26 26 24 27 c13 14 27 33 30 41 4 8 18 33 32
55 14 22 28 48 31 58 4 9 12 17 20 17 7 0 19 9 27 20 20 29 113 100 131 100
13 0 16 -12 16 -60 0 -33 4 -60 10 -60 6 0 10 -9 10 -20 0 -13 10 -22 33 -29
17 -5 24 -10 14 -10 -27 -1 -13 -34 38 -88 29 -30 49 -43 60 -40 24 10 75 -4
75 -19 0 -8 -8 -14 -17 -15 -14 0 -13 -2 5 -9 15 -6 22 -18 22 -35 0 -20 5
-25 26 -25 24 0 26 3 19 28 -4 15 -6 44 -6 64 1 20 -8 53 -18 72 -13 22 -16
38 -10 42 16 10 59 -25 59 -49 1 -12 7 -33 15 -47 8 -14 15 -38 15 -55 0 -39
10 -75 20 -75 5 0 11 10 13 23 3 18 5 16 6 -7 0 -16 4 -26 7 -23 11 10 14 76
4 82 -5 3 -5 18 0 34 4 15 6 40 3 54 -3 15 -2 35 3 44 4 10 9 50 10 90 2 99 4
103 62 103 26 0 53 -5 58 -10 14 -14 74 -31 74 -20 0 4 17 4 38 -1 53 -12 52
-13 52 26 0 29 -4 36 -25 41 -24 6 -35 24 -15 24 6 0 10 11 10 25 0 14 6 25
13 25 7 0 24 18 37 40 14 22 33 42 42 45 10 4 15 12 11 21 -3 8 1 14 10 14 9
0 20 6 24 13 28 43 116 76 138 51 6 -6 23 -15 39 -18z m190 -912 c25 -10 19
-20 -11 -18 -39 2 -55 -6 -49 -23 4 -9 0 -13 -11 -11 -21 4 -27 -21 -18 -68 4
-24 11 -34 25 -34 10 0 21 -6 23 -12 3 -7 6 2 6 20 1 25 -4 35 -21 42 l-23 9
23 0 c17 1 22 7 22 27 0 20 3 24 13 16 8 -7 18 -6 31 4 26 19 46 17 73 -5 22
-18 22 -21 9 -65 -10 -31 -10 -46 -3 -49 6 -2 1 -13 -11 -25 -12 -12 -21 -25
-20 -29 2 -13 -14 -43 -23 -43 -10 0 -1 48 11 65 15 18 22 82 11 89 -6 4 -8
20 -4 37 l6 30 -37 -17 c-38 -18 -49 -50 -21 -60 8 -4 15 -11 15 -16 0 -6 -7
-8 -15 -4 -9 3 -15 0 -15 -10 0 -18 -27 -62 -55 -89 -15 -14 -29 -19 -45 -15
-23 5 -23 6 12 23 51 24 64 43 36 50 -17 5 -31 -2 -54 -24 -25 -24 -37 -29
-55 -24 -21 7 -21 8 -3 18 30 16 30 17 4 37 -23 18 -24 19 -7 38 9 10 17 24
17 30 0 7 5 12 10 12 6 0 10 9 10 20 0 12 5 17 14 14 18 -7 31 15 17 29 -15
15 -14 27 4 27 8 0 15 -4 15 -10 0 -15 26 -12 40 5 13 16 29 19 54 9z m156
-264 c0 -4 -7 -13 -15 -20 -8 -7 -15 -18 -15 -26 0 -18 -28 -44 -48 -44 -15 1
-14 3 3 17 20 15 19 15 -5 9 -14 -3 -31 -6 -38 -6 -7 0 -11 -4 -7 -9 3 -5 -4
-12 -15 -16 -22 -7 -27 -31 -7 -38 9 -3 7 -10 -6 -23 -14 -15 -21 -17 -37 -7
-16 11 -22 9 -41 -18 -27 -38 -17 -49 23 -26 25 15 29 15 24 2 -4 -12 0 -14
22 -9 36 9 42 13 42 27 0 7 12 18 28 25 15 7 36 19 47 28 17 12 18 16 5 24 -8
5 -11 12 -7 16 3 4 12 2 19 -4 7 -5 31 -20 52 -32 30 -17 41 -19 47 -9 4 8 3
19 -3 26 -6 7 -7 13 -2 13 25 -1 33 -20 33 -83 0 -56 -3 -67 -17 -67 -16 -1
-16 -2 1 -14 21 -17 22 -54 1 -78 -16 -16 -16 -18 0 -24 9 -3 16 -12 16 -20 0
-17 -12 -18 -28 -2 -9 9 -12 9 -12 0 0 -7 5 -12 10 -12 6 0 10 -16 10 -35 0
-19 5 -35 10 -35 14 0 12 -54 -2 -68 -15 -15 -48 -16 -48 -2 0 6 10 15 23 19
21 9 21 9 3 17 -13 5 -21 3 -24 -4 -2 -7 -10 -12 -18 -12 -25 0 -12 -43 18
-62 15 -10 30 -29 34 -44 6 -23 0 -33 -47 -76 -30 -26 -64 -53 -77 -58 -17 -8
-22 -15 -17 -30 8 -24 -3 -26 -19 -4 -11 15 -15 15 -50 0 -21 -9 -47 -16 -58
-16 -11 0 -18 -5 -15 -12 8 -24 203 -11 272 18 l35 14 0 -66 0 -67 -67 7 c-38
4 -102 14 -143 22 -41 8 -85 15 -97 16 -13 0 -23 4 -23 8 0 5 -13 11 -30 15
l-30 7 0 97 c0 54 -5 123 -11 153 -12 61 -13 59 49 122 17 18 32 41 32 50 0 9
4 15 10 11 11 -7 56 36 52 49 -2 5 6 15 18 23 11 8 20 21 20 29 0 22 49 64 67
57 13 -5 13 -3 4 15 -15 29 -23 32 -56 24 -18 -5 -35 -22 -49 -46 -11 -21 -33
-51 -48 -66 -16 -15 -28 -35 -28 -44 0 -10 -4 -15 -9 -12 -5 3 -20 -5 -35 -19
-24 -22 -26 -23 -26 -5 0 11 7 20 15 20 10 0 15 10 15 30 0 20 -5 30 -15 30
-8 0 -16 9 -16 20 -1 11 -2 25 -3 30 -2 20 19 10 26 -12 5 -20 6 -19 7 9 1 17
-5 33 -11 36 -10 3 -10 9 0 26 6 11 12 33 12 49 0 21 5 28 20 29 21 2 69 50
70 69 0 13 32 24 68 24 13 0 22 6 22 15 0 27 35 53 64 48 14 -3 26 -9 26 -13z
m-2440 -346 c0 -7 9 -14 20 -14 11 0 19 5 18 12 -5 19 32 21 53 2 15 -13 19
-31 19 -76 l0 -58 -34 0 c-28 0 -40 7 -59 33 -34 45 -67 116 -67 145 l0 25 25
-27 c14 -15 25 -34 25 -42z m-1935 -54 c3 -5 -1 -10 -9 -10 -10 0 -16 -9 -16
-25 0 -21 5 -25 31 -25 20 0 29 -4 27 -12 -3 -7 -10 -14 -16 -14 -7 -1 -18 -2
-25 -3 -6 0 -19 -16 -26 -33 -8 -18 -25 -48 -38 -67 -13 -19 -21 -36 -18 -39
2 -3 -3 -10 -12 -17 -27 -20 -8 -43 41 -50 50 -8 60 -21 21 -31 -31 -8 -47
-27 -39 -47 8 -22 63 -49 86 -41 20 6 25 -11 6 -19 -8 -4 -7 -6 3 -6 25 -1 30
24 8 38 -11 6 -17 16 -13 22 3 6 19 -3 36 -21 22 -23 27 -35 19 -43 -19 -19
-12 -32 24 -43 43 -13 63 -4 40 20 -9 9 -21 16 -27 16 -7 0 -6 5 2 15 10 12
15 11 38 -10 17 -16 29 -21 33 -13 4 7 17 8 35 2 l29 -8 -32 -4 c-39 -4 -64
-29 -42 -43 8 -5 22 -9 31 -9 43 0 47 -9 31 -55 -10 -31 -19 -42 -29 -38 -14
5 -44 -13 -44 -27 0 -4 10 -10 21 -13 24 -6 25 2 -14 -147 -13 -52 -27 -107
-31 -121 -6 -26 -28 -39 -71 -42 -13 -1 -20 -9 -20 -24 -1 -28 -13 -41 -20
-19 -3 9 -7 23 -10 31 -4 14 -8 14 -34 0 -38 -19 -52 -19 -45 0 4 8 1 15 -5
15 -6 0 -11 11 -11 25 0 16 -6 25 -15 25 -8 0 -15 5 -15 10 0 6 -9 10 -20 10
-11 0 -20 3 -20 8 0 10 -50 32 -71 32 -10 0 -21 5 -24 10 -9 15 -25 12 -25 -5
0 -8 -7 -15 -16 -15 -8 0 -12 -4 -9 -10 3 -5 -1 -10 -9 -10 -21 0 -20 16 0 24
9 4 14 13 10 21 -3 8 0 15 6 15 6 0 9 3 6 6 -9 8 -48 -14 -48 -27 0 -41 -80
-44 -99 -3 -12 27 -29 31 -37 10 -4 -10 -21 -14 -52 -13 -25 0 -40 3 -32 6 18
7 24 61 7 61 -7 0 -23 3 -37 6 -23 5 -24 4 -7 -9 21 -17 23 -57 3 -57 -8 0
-18 5 -21 11 -4 6 -26 9 -49 7 -37 -2 -41 0 -44 22 -2 14 -11 31 -20 38 -14
11 -14 12 1 12 9 0 17 -5 17 -11 0 -5 4 -8 9 -4 5 3 12 1 16 -5 8 -13 35 -13
35 0 0 6 -7 10 -16 10 -25 0 -74 61 -75 95 0 16 -3 24 -6 18 -8 -21 -33 -15
-33 7 0 16 7 20 30 20 39 0 45 -3 42 -17 -2 -7 4 -13 12 -13 9 0 16 -12 18
-32 4 -46 38 -53 38 -8 0 28 2 31 15 20 9 -7 27 -10 44 -7 23 5 30 2 34 -13 4
-17 0 -20 -29 -20 -39 0 -43 -12 -12 -34 23 -17 53 -22 44 -8 -2 4 2 22 11 40
15 31 15 34 -3 48 -10 8 -29 19 -42 24 -14 6 -22 17 -20 27 2 10 -6 22 -18 27
-19 8 -31 29 -47 78 -3 9 -23 24 -44 33 -21 9 -48 22 -60 27 -12 6 -33 8 -46
6 -22 -4 -24 -3 -14 14 7 10 15 18 19 18 5 0 8 5 8 11 0 5 -4 7 -10 4 -5 -3
-10 -1 -10 5 0 6 -10 8 -27 4 -38 -9 -40 -12 -18 -27 17 -13 17 -14 0 -21 -17
-6 -17 -7 1 -21 17 -13 17 -14 2 -15 -23 0 -23 -29 -1 -46 10 -7 14 -16 10
-21 -5 -4 -14 0 -21 10 -7 9 -18 17 -25 17 -6 0 -11 7 -11 15 0 8 -7 15 -15
15 -8 0 -15 -7 -15 -15 0 -8 4 -15 8 -15 5 0 14 -16 22 -35 12 -30 18 -35 46
-35 39 0 54 -17 47 -52 -6 -29 -33 -39 -33 -13 0 9 -10 15 -26 15 -20 0 -24 4
-19 19 7 23 -17 44 -51 44 -17 0 -24 4 -20 13 3 8 0 14 -7 14 -8 0 -7 4 3 10
13 9 13 12 -2 21 -10 5 -18 17 -18 25 0 9 7 14 18 12 11 -2 17 3 17 16 0 27
-22 32 -30 7 -3 -12 -12 -21 -20 -21 -18 0 -27 40 -9 47 15 6 20 33 5 33 -5 0
-16 3 -25 6 -16 6 -66 -37 -66 -58 0 -9 3 -9 12 0 19 19 35 14 34 -10 -1 -13
4 -23 9 -23 10 0 55 -41 55 -49 0 -3 -17 0 -37 6 -40 10 -67 28 -44 28 7 0 9
5 5 11 -4 7 -10 7 -16 1 -14 -14 -38 -4 -38 15 0 10 -6 13 -15 9 -8 -3 -22 -9
-30 -12 -8 -3 -30 10 -55 35 -23 23 -49 41 -58 41 -25 1 -58 32 -65 62 -6 22
-4 27 12 25 24 -2 49 -37 25 -37 -8 0 -13 -4 -10 -9 3 -5 21 -1 41 8 52 24 44
59 -12 52 -7 -1 -13 3 -13 9 0 14 46 13 69 -2 23 -14 53 -4 45 17 -3 8 -13 15
-21 15 -13 0 -13 3 -3 15 11 14 15 14 37 0 29 -20 68 -16 68 6 0 18 23 49 36
49 5 0 9 -4 9 -10 0 -5 -7 -10 -15 -10 -9 0 -15 -9 -15 -24 0 -45 19 -37 45
19 15 30 30 55 34 55 4 0 13 -11 19 -25 13 -27 27 -32 36 -12 5 13 25 -11 38
-48 6 -15 7 -13 4 8 -3 23 0 27 21 27 13 0 34 -7 47 -16 17 -10 49 -15 103
-15 75 -1 117 -9 176 -34 28 -12 28 -12 5 -19 -15 -5 -18 -9 -10 -13 8 -3 26
6 40 19 32 30 63 42 71 29 4 -5 18 -12 34 -16 21 -6 28 -3 34 11 3 11 12 23
20 27 7 4 13 19 13 32 0 13 5 27 10 30 18 11 10 -42 -9 -59 -39 -35 -28 -121
17 -145 58 -31 151 7 152 62 0 9 4 17 9 17 5 0 7 -10 4 -21 -5 -19 -4 -20 15
-10 11 6 30 11 42 11 13 0 18 4 14 11 -3 6 -17 8 -30 5 -23 -6 -24 -4 -18 21
4 16 15 38 26 50 20 21 20 21 -1 28 -31 9 -26 27 7 23 21 -2 27 1 27 17 0 11
8 23 18 27 10 4 17 18 17 32 0 14 5 28 11 31 6 4 8 13 5 21 -6 15 13 54 26 54
4 0 10 -4 13 -10z m-4491 -28 c3 -5 8 -26 11 -48 5 -35 2 -43 -30 -77 -29 -32
-41 -38 -68 -35 -25 2 -33 8 -35 27 -2 14 -30 51 -62 83 l-58 58 118 0 c65 0
121 -4 124 -8z m1566 -12 c59 -10 128 -24 200 -40 25 -6 63 -15 85 -20 149
-33 225 -50 255 -59 19 -5 46 -13 60 -16 14 -4 31 -9 38 -11 9 -3 -4 -36 -43
-112 l-56 -108 -56 -12 c-40 -8 -60 -9 -69 -1 -7 6 -18 8 -25 4 -8 -6 -8 -9 1
-15 15 -9 -2 -13 -140 -35 -301 -47 -543 -32 -609 39 l-22 24 26 6 c113 28 91
191 -25 191 -53 0 -81 -29 -87 -88 -7 -63 13 -113 66 -165 l46 -45 -49 28
c-26 16 -59 38 -71 49 -13 12 -33 28 -46 37 l-24 16 19 59 c46 147 154 244
310 280 60 13 104 12 216 -6z m7910 3 c11 -10 20 -27 20 -39 0 -15 10 -26 30
-34 33 -14 38 -25 15 -34 -8 -3 -15 -12 -15 -20 0 -20 89 -20 97 -1 2 8 14 17
26 21 l22 7 -23 8 c-12 5 -22 15 -22 23 0 7 -10 16 -22 20 -19 4 -20 8 -10 18
11 11 16 9 31 -11 17 -22 21 -23 52 -12 22 8 36 8 43 1 7 -7 3 -10 -11 -10
-28 0 -38 -16 -21 -33 17 -16 126 -10 130 7 2 9 12 10 36 4 38 -10 35 -28 -3
-20 -18 3 -25 0 -25 -12 0 -18 -5 -19 -35 -6 -15 6 -27 1 -47 -18 -16 -14 -28
-21 -28 -15 0 8 -41 33 -54 33 -2 0 -6 -9 -9 -20 -5 -20 -11 -21 -89 -21 -21
0 -38 -5 -38 -10 0 -5 4 -9 9 -9 6 0 13 -20 17 -46 6 -44 7 -45 38 -38 34 7
86 50 86 71 0 7 5 13 10 13 16 0 11 -25 -10 -50 -11 -13 -20 -27 -20 -31 0
-11 -73 -30 -128 -34 -36 -2 -50 -10 -78 -40 -36 -39 -39 -61 -15 -103 11 -21
11 -23 -6 -20 -10 2 -17 10 -15 16 1 7 -2 12 -8 12 -15 0 -12 43 6 79 18 37
13 61 -14 61 -16 0 -18 8 -18 69 1 38 4 73 8 76 4 4 19 2 35 -3 17 -6 21 -11
11 -11 -10 -1 -18 -5 -18 -10 0 -9 63 -6 80 4 20 12 11 32 -14 28 -24 -5 -66
11 -66 25 0 4 14 15 30 24 40 23 39 39 -2 31 -23 -5 -34 -2 -45 12 -17 24 -17
35 2 35 8 0 15 -9 15 -20 0 -14 7 -20 21 -20 18 0 20 4 14 27 -3 15 -12 31
-18 35 -8 5 -6 8 5 8 10 0 27 -8 38 -17z m109 -358 c26 -50 36 -55 44 -25 6
22 27 28 27 7 0 -7 -5 -18 -11 -24 -17 -17 7 -46 77 -95 66 -46 75 -56 105
-114 12 -23 32 -54 45 -69 23 -27 32 -55 17 -55 -5 0 -19 16 -32 35 -22 32
-25 34 -36 18 -7 -10 -16 -29 -20 -43 -4 -13 -14 -30 -22 -38 -12 -12 -13 -10
-7 14 4 16 15 52 26 81 l19 52 -33 37 c-18 20 -46 43 -62 51 -26 14 -30 13
-55 -10 -14 -14 -42 -32 -62 -40 -20 -8 -36 -22 -36 -31 0 -9 3 -16 7 -16 4 0
16 -20 28 -44 13 -24 28 -46 36 -49 15 -6 29 -47 15 -47 -5 0 -16 12 -26 28
-10 15 -23 30 -29 34 -6 4 -17 21 -24 38 -7 16 -16 30 -21 30 -5 0 -9 6 -9 13
0 9 -16 13 -52 12 -51 0 -54 1 -86 43 -44 58 -36 75 11 23 33 -36 42 -41 81
-41 61 0 66 16 14 39 -46 19 -81 51 -58 51 7 0 28 -11 46 -25 18 -14 46 -28
61 -31 l28 -5 0 73 c0 61 -4 78 -23 102 -21 28 -30 66 -14 66 4 0 18 -20 31
-45z m-9789 -24 c13 -20 100 -61 129 -61 17 0 40 -6 51 -12 15 -10 22 -10 32
0 11 11 8 17 -12 32 -39 31 -6 23 52 -11 29 -17 75 -38 102 -46 43 -13 133
-83 106 -83 -5 0 -10 -7 -10 -16 0 -15 8 -16 60 -11 34 4 70 11 80 17 13 7 26
7 38 1 11 -6 24 -6 32 -1 8 5 25 7 37 4 47 -12 44 9 -3 29 -95 39 -134 59
-134 69 0 6 7 7 18 3 9 -4 42 -16 72 -27 30 -10 69 -25 85 -32 17 -8 40 -17
53 -21 26 -8 30 -27 5 -24 -30 3 -43 -1 -43 -11 0 -5 7 -10 15 -10 8 0 15 -4
15 -10 0 -5 -21 -9 -47 -7 -37 1 -48 -1 -48 -13 0 -16 16 -16 88 -4 34 6 38 4
35 -12 -2 -14 -18 -21 -62 -29 -37 -6 -61 -16 -64 -25 -3 -8 -9 -18 -15 -21
-5 -4 -16 -24 -23 -45 -12 -35 -12 -40 3 -51 9 -7 22 -13 27 -13 6 -1 0 -10
-13 -20 -36 -31 -201 -26 -201 6 0 8 -10 15 -22 16 -52 3 -75 7 -113 18 -53
16 -205 51 -231 54 -11 1 -25 5 -30 9 -6 3 -21 8 -35 11 -13 3 -37 9 -54 14
l-30 8 -3 173 -2 173 27 -7 c15 -3 30 -10 33 -14z m2280 -55 c0 -2 -29 -65
-64 -140 l-65 -136 -33 6 c-98 17 -370 97 -452 133 -64 28 -148 59 -178 67
-15 3 -32 12 -38 19 -8 10 3 9 47 -3 123 -35 425 -19 684 38 100 21 99 21 99
16z m410 -58 c0 -5 -7 -8 -15 -8 -15 0 -21 -21 -9 -33 10 -9 34 4 34 19 0 19
16 18 24 -1 3 -8 18 -21 33 -28 15 -6 36 -20 46 -30 18 -18 18 -20 -19 -80
-20 -34 -39 -64 -41 -67 -2 -2 -13 1 -23 8 -11 7 -20 8 -20 3 0 -6 7 -14 17
-19 15 -9 14 -12 -6 -41 -12 -17 -27 -31 -33 -31 -5 0 -8 -6 -5 -14 7 -17 -21
-59 -33 -51 -5 3 -8 -3 -7 -12 1 -16 -82 -151 -121 -195 -13 -15 -16 -15 -29
-2 -13 13 -12 17 9 34 27 23 12 26 -17 4 -11 -8 -20 -22 -20 -31 0 -9 -6 -18
-13 -21 -6 -2 -12 3 -12 12 0 9 -4 16 -9 16 -12 0 17 87 31 96 5 3 17 -1 27
-10 20 -18 31 -20 31 -6 0 6 -6 10 -14 10 -7 0 -19 7 -26 15 -10 12 -3 37 35
132 26 65 51 129 55 144 4 14 27 68 50 121 39 88 44 96 61 85 11 -7 19 -15 19
-19z m215 -183 c13 -4 16 -8 8 -13 -7 -4 -19 -21 -27 -37 -14 -26 -13 -30 2
-41 20 -16 42 -18 42 -4 0 6 -7 10 -15 10 -9 0 -15 9 -15 25 0 31 2 31 37 -1
19 -18 34 -23 50 -19 17 4 25 0 30 -11 9 -24 37 -51 62 -59 12 -3 19 -10 17
-14 -3 -4 4 -12 15 -19 10 -7 19 -8 19 -3 0 5 -6 12 -12 14 -10 4 -10 6 -1 6
15 1 113 -92 113 -108 0 -14 35 -14 62 0 30 16 43 -9 19 -36 -19 -21 -26 -65
-10 -65 5 0 9 5 9 11 0 6 7 9 15 5 9 -3 15 0 15 10 0 10 -6 14 -15 10 -8 -3
-15 -1 -15 4 0 6 9 10 21 10 11 0 18 4 15 8 -2 4 -1 14 4 22 7 12 12 12 22 2
9 -9 9 -15 0 -24 -7 -7 -12 -22 -12 -35 0 -14 -6 -23 -15 -23 -8 0 -15 -4 -15
-9 0 -5 -9 -11 -20 -14 -26 -7 -37 -36 -19 -48 13 -8 10 -11 -7 -8 -4 0 -11
-5 -15 -13 -7 -10 -9 -10 -9 0 0 6 -7 12 -16 12 -20 0 -47 27 -35 34 5 4 21 2
35 -4 24 -9 26 -7 26 15 0 16 -6 25 -15 25 -8 0 -15 5 -15 10 0 6 5 10 10 10
6 0 10 7 10 15 0 16 -43 21 -75 8 -15 -5 -15 -8 6 -25 l24 -19 -25 6 c-36 10
-45 22 -30 40 14 17 8 19 -20 5 -11 -5 -29 -15 -40 -20 -16 -8 -24 -7 -35 4
-10 9 -11 16 -4 18 6 2 -1 10 -15 17 -14 8 -29 11 -33 6 -5 -4 -2 -10 5 -12 6
-3 12 -10 12 -15 0 -6 -3 -8 -6 -5 -4 4 -19 -1 -34 -10 -24 -14 -32 -14 -60
-3 -28 12 -34 11 -44 -2 -10 -14 -14 -14 -31 -2 -17 13 -18 16 -5 24 13 8 12
10 -2 10 -10 0 -18 -5 -18 -11 0 -5 -4 -8 -9 -4 -5 3 -12 1 -16 -5 -3 -5 1
-10 9 -10 10 0 13 -6 10 -15 -4 -8 -18 -15 -33 -14 -22 0 -23 2 -7 8 18 7 18
8 2 14 -13 5 -21 -3 -36 -36 -11 -25 -19 -34 -19 -23 -1 18 -2 18 -19 3 -25
-23 -32 -21 -33 6 0 22 0 22 -9 1 -10 -25 -30 -35 -58 -27 -29 7 -34 28 -11
52 11 12 17 21 14 21 -7 0 45 72 60 82 5 4 11 12 11 18 3 23 5 24 15 10 9 -12
10 -12 5 3 -8 25 11 58 29 51 8 -4 15 -1 15 6 0 6 -4 8 -10 5 -5 -3 -10 -2
-10 4 0 5 4 12 9 15 5 3 18 24 30 46 40 76 71 120 87 120 14 0 15 2 3 17 -13
14 -12 15 6 5 11 -6 29 -13 40 -17z m5993 -56 c51 -14 62 -25 42 -45 -7 -7 -3
-14 15 -22 27 -13 30 -7 15 33 l-10 26 31 -21 c25 -19 40 -22 86 -18 45 4 60
1 75 -14 20 -20 24 -33 8 -23 -7 4 -9 -2 -4 -19 4 -16 2 -26 -5 -26 -6 0 -11
5 -11 10 0 6 -5 10 -10 10 -7 0 -7 -6 0 -20 6 -11 17 -20 25 -20 13 0 15 -62
15 -455 l0 -455 -36 0 c-28 0 -37 5 -41 20 -3 11 -12 19 -21 18 -11 -2 -16 5
-16 27 -1 25 -5 31 -29 33 -40 5 -64 -5 -49 -20 8 -8 9 -15 1 -25 -8 -9 -8
-13 0 -13 11 0 36 -47 33 -62 -1 -3 14 -22 33 -41 20 -20 33 -41 30 -49 -3 -8
1 -21 10 -28 8 -7 15 -21 15 -32 0 -10 9 -40 21 -65 11 -25 18 -51 15 -59 -3
-7 -1 -16 5 -20 6 -3 8 -12 5 -19 -2 -7 1 -18 7 -24 8 -8 8 -11 -2 -11 -9 0
-12 -15 -10 -52 l3 -53 -32 3 c-36 2 -39 -3 -15 -30 15 -17 14 -18 -20 -18
-20 0 -39 -5 -42 -10 -4 -7 -13 -6 -26 1 -12 6 -23 8 -26 5 -12 -11 -139 104
-153 138 -14 37 -28 44 -46 26 -8 -8 -39 8 -101 48 -282 185 -589 334 -948
458 -124 42 -181 67 -183 78 -2 9 1 16 6 16 29 0 188 32 242 49 49 16 66 17
72 8 5 -8 8 -7 8 4 0 11 26 28 73 49 99 44 97 44 97 28 0 -7 9 -21 20 -31 19
-16 24 -33 20 -70 -1 -10 4 -25 10 -32 18 -22 42 7 39 48 -1 17 -1 59 0 92 1
58 3 61 40 88 48 33 55 33 83 2 12 -14 29 -25 38 -25 8 0 26 -7 38 -16 12 -8
26 -13 31 -10 4 3 17 -4 29 -14 22 -21 48 -28 37 -10 -3 6 -2 10 3 10 5 0 21
12 36 26 18 18 26 22 26 12 0 -11 12 -15 48 -13 63 2 72 9 72 53 0 21 7 48 16
60 14 21 14 22 -7 22 -16 0 -20 3 -12 11 7 7 6 25 -5 62 -11 40 -12 58 -3 82
6 17 11 47 11 67 0 31 -3 36 -30 41 l-30 6 38 60 c21 32 52 85 68 118 l29 58
75 -1 c41 -1 99 -8 128 -15z m-5148 -139 c16 8 24 6 40 -10 15 -15 20 -17 20
-5 0 17 4 18 80 15 30 -2 72 -2 93 -1 26 0 37 -4 37 -14 0 -8 -5 -15 -12 -15
-8 0 -7 -6 4 -16 20 -20 62 -10 54 13 -5 12 6 14 77 8 45 -4 112 -7 150 -8 37
-1 67 -5 67 -8 0 -11 36 -17 53 -8 10 6 17 4 21 -6 5 -14 11 -13 44 4 l39 20
12 -40 c8 -26 9 -45 3 -52 -6 -7 -12 -21 -15 -32 -2 -11 -5 1 -6 28 -1 42 -3
47 -24 47 -13 0 -28 -5 -35 -12 -7 -7 -27 -17 -44 -22 -18 -6 -32 -14 -30 -18
1 -5 -7 -17 -18 -28 -11 -11 -20 -29 -20 -39 0 -11 -5 -23 -11 -27 -8 -5 -9 6
-4 35 5 31 3 41 -7 42 -7 1 -38 3 -68 5 -30 1 -71 6 -90 10 -19 3 -48 7 -65 8
-16 0 -35 4 -42 9 -6 4 -48 9 -92 12 -97 5 -131 13 -131 30 0 8 -8 11 -20 8
-11 -3 -31 2 -45 11 -32 21 -73 13 -54 -11 7 -8 23 -13 36 -10 29 5 30 -4 1
-22 -21 -13 -21 -14 -3 -27 25 -18 62 0 44 22 -9 11 -7 14 15 14 14 0 26 -4
26 -10 0 -5 -4 -10 -10 -10 -5 0 -10 -10 -10 -21 0 -18 5 -21 30 -17 18 3 31
0 34 -9 3 -8 22 -13 49 -13 26 0 49 -6 56 -14 7 -9 40 -17 79 -21 37 -3 78
-12 92 -19 14 -7 31 -11 38 -9 7 3 19 0 27 -7 8 -6 24 -9 35 -5 14 4 26 1 33
-8 12 -15 50 -26 103 -30 18 -2 38 -8 45 -14 8 -6 27 -11 43 -11 15 0 32 -5
36 -12 4 -6 20 -11 36 -9 16 1 37 -2 47 -6 10 -4 32 -5 48 -1 29 5 31 4 27
-17 -4 -18 0 -23 19 -25 17 -1 23 4 24 21 1 17 2 18 6 5 2 -10 13 -18 24 -18
12 0 19 -7 19 -20 0 -17 -3 -19 -19 -10 -27 14 -41 13 -41 -5 0 -9 10 -15 28
-16 27 -1 27 -1 -5 -11 -44 -14 -96 6 -88 33 5 16 1 19 -26 19 -27 0 -30 -2
-18 -16 10 -13 10 -17 -2 -25 -8 -5 -17 -9 -21 -9 -5 0 -8 -9 -8 -20 0 -12 -7
-20 -17 -21 -38 -2 -69 3 -83 16 -16 13 -40 10 -40 -7 0 -5 10 -18 23 -29 12
-10 17 -18 10 -19 -6 0 -15 5 -18 10 -7 11 -55 14 -55 3 0 -4 12 -17 28 -30
15 -12 21 -22 15 -23 -7 0 -13 5 -13 10 0 6 -8 10 -17 10 -20 1 -64 30 -45 30
7 0 12 9 12 20 0 11 6 20 13 20 21 1 61 36 48 44 -6 4 -19 3 -28 -3 -11 -6
-24 -6 -36 1 -29 15 -47 -7 -21 -27 14 -11 15 -14 4 -14 -29 1 -54 15 -42 23
18 11 5 26 -22 26 -29 0 -39 -10 -25 -27 9 -10 8 -13 -5 -13 -9 0 -16 5 -16
10 0 6 -11 10 -25 10 -33 0 -32 -23 0 -38 38 -17 65 -15 66 6 1 16 2 16 6 0 2
-10 11 -18 20 -18 13 0 13 -3 2 -16 -10 -13 -10 -17 1 -24 8 -5 18 -6 23 -3 5
3 6 -8 2 -26 -6 -27 -4 -31 14 -31 11 0 23 5 26 10 3 6 14 10 23 10 14 0 14
-2 3 -9 -8 -5 -10 -14 -6 -21 6 -10 -2 -11 -36 -6 -24 4 -45 11 -47 16 -6 16
-52 12 -52 -5 0 -8 -4 -15 -9 -15 -5 0 -11 7 -15 15 -3 8 -16 15 -30 15 -26 0
-43 27 -27 43 6 6 29 11 53 11 53 1 53 21 0 22 -57 1 -127 54 -72 54 11 0 20
5 20 10 0 6 14 10 30 10 20 0 30 5 30 15 0 17 -40 21 -56 5 -6 -6 -10 -3 -10
10 0 11 8 23 18 26 10 3 18 10 18 16 0 6 8 17 18 24 13 10 14 15 5 25 -16 16
-47 3 -39 -16 3 -9 0 -15 -9 -15 -8 0 -18 -6 -22 -13 -4 -8 -21 -13 -38 -13
-32 1 -32 1 -34 -67 -1 -23 -6 -36 -13 -35 -7 2 -13 -11 -15 -29 -2 -24 1 -33
12 -33 9 0 15 10 15 25 0 31 35 36 37 5 1 -11 -3 -20 -9 -20 -6 0 -6 -6 2 -15
10 -12 10 -19 2 -27 -9 -9 -12 -9 -12 1 0 8 -6 11 -15 7 -8 -3 -15 0 -16 7 0
9 -2 9 -6 0 -2 -7 -14 -13 -24 -13 -11 0 -17 4 -14 10 3 5 -3 15 -15 22 -11 7
-20 21 -20 30 0 10 -4 18 -10 18 -5 0 -10 5 -10 11 0 8 4 8 14 0 16 -13 49 -4
43 13 -2 6 -17 12 -33 12 -58 2 -64 4 -64 19 0 14 -59 48 -76 43 -5 -1 -23 6
-41 15 -18 9 -47 17 -66 17 -54 0 -117 40 -117 74 0 20 -58 86 -76 86 -8 0
-11 6 -7 16 3 9 0 20 -8 24 -16 10 -52 -7 -44 -21 10 -14 -11 -11 -24 5 -8 10
-9 16 -1 21 20 13 10 35 -16 35 -21 0 -25 -4 -21 -20 3 -11 1 -22 -4 -25 -4
-3 -6 -12 -2 -20 4 -11 -3 -15 -26 -15 -36 0 -43 25 -10 33 18 5 21 11 16 39
-3 18 -8 40 -12 49 -5 14 2 16 49 14 39 -1 64 4 82 16 15 9 33 15 41 12 8 -3
24 -1 36 5 33 16 59 19 94 10 21 -6 40 -5 53 2z m5885 -336 c11 -26 20 -34 39
-34 17 0 26 6 26 16 0 20 16 10 23 -15 3 -15 1 -18 -11 -14 -10 4 -13 2 -8 -6
4 -6 2 -19 -5 -27 -9 -12 -9 -19 0 -38 7 -12 11 -36 9 -52 -3 -28 -5 -29 -66
-34 l-62 -5 0 121 c0 66 3 123 6 127 12 12 35 -6 49 -39z m-7068 -240 c21 -6
21 -7 6 -30 -9 -15 -11 -24 -4 -24 6 0 11 6 11 14 0 7 11 21 24 29 36 24 92
12 113 -24 18 -30 37 -40 27 -15 -3 7 2 16 10 19 16 6 88 -11 96 -23 7 -11
185 -59 296 -80 0 0 1 -17 2 -37 2 -42 16 -55 51 -46 31 8 78 9 461 17 173 3
335 8 360 12 25 3 62 8 83 9 21 2 43 8 50 13 7 5 28 12 47 15 19 3 53 10 75
17 22 6 52 14 68 17 15 3 27 9 27 13 0 4 17 10 38 13 20 3 64 12 97 21 33 8
87 20 120 27 51 9 71 16 116 36 4 1 7 -51 8 -117 l0 -120 -30 -35 c-17 -19
-39 -35 -49 -35 -10 0 -20 -7 -24 -15 -3 -8 -14 -15 -25 -15 -11 0 -33 -11
-49 -25 -17 -14 -34 -25 -39 -23 -14 3 -77 -14 -92 -26 -8 -6 -16 -10 -18 -8
-9 6 -53 1 -53 -7 0 -5 30 -9 66 -9 37 0 69 -4 73 -10 5 -8 47 -8 199 0 17 1
33 6 33 12 3 26 17 -54 18 -101 l1 -53 -32 -1 c-18 -1 -61 -2 -95 -3 -34 0
-65 -4 -69 -8 -11 -12 -44 -10 -44 2 0 6 -5 10 -11 10 -5 0 -8 -4 -5 -9 4 -5
0 -11 -6 -14 -19 -6 -49 4 -42 14 3 5 1 9 -4 9 -5 0 -14 -10 -20 -22 l-11 -23
0 23 c-1 22 -2 22 -17 7 -29 -28 -26 -8 6 50 33 59 34 85 3 85 -11 0 -32 -24
-56 -65 -52 -86 -59 -91 -106 -75 -45 15 -83 6 -74 -17 5 -13 3 -14 -17 -3
-17 9 -29 9 -47 1 -13 -6 -33 -11 -43 -11 -11 0 -20 -5 -20 -11 0 -17 -32 -38
-57 -39 -22 0 -23 -5 -25 -72 l-1 -73 -6 60 c-6 57 -7 60 -31 57 -14 -2 -30
-8 -37 -13 -7 -7 -12 -6 -15 2 -3 8 -9 9 -23 1 -11 -5 -40 -16 -65 -23 -25 -7
-49 -18 -53 -24 -6 -7 -10 -6 -14 3 -2 6 -16 12 -29 12 -17 0 -24 6 -24 20 0
14 16 27 58 46 41 20 51 28 37 31 -54 9 -95 28 -96 42 -1 13 -2 13 -6 -1 -2
-10 -9 -18 -14 -18 -5 0 -9 -5 -9 -10 0 -24 -24 -35 -66 -31 -35 2 -43 0 -39
-11 8 -21 -63 -48 -121 -46 -27 1 -59 -2 -71 -6 -37 -12 -37 -11 77 238 22 49
40 94 40 101 0 19 -82 38 -168 38 -133 0 -192 -37 -279 -178 l-58 -95 -52 0
c-29 0 -53 -4 -53 -10 0 -5 18 -10 41 -10 33 0 40 -3 37 -17 -4 -21 -74 -38
-93 -23 -6 5 -15 7 -18 3 -4 -3 -7 -1 -7 6 0 6 -6 11 -12 10 -7 -1 -20 0 -28
4 -28 11 -110 15 -110 5 0 -5 -7 -2 -16 6 -18 19 -59 31 -73 22 -5 -4 -12 -2
-16 4 -3 5 -28 10 -54 10 -43 0 -53 -5 -83 -35 l-34 -35 4 35 c2 19 8 38 13
41 23 14 4 24 -46 24 -43 0 -56 -4 -64 -19 -6 -10 -7 -21 -4 -25 3 -3 1 -6 -6
-6 -13 0 -50 -39 -51 -52 0 -5 7 -8 16 -8 8 0 12 5 9 10 -3 6 5 14 19 20 14 5
26 14 26 19 0 15 42 51 52 45 4 -3 6 -9 3 -14 -3 -5 -1 -18 5 -29 8 -16 6 -22
-10 -31 -13 -7 -20 -7 -20 0 0 5 -4 10 -10 10 -5 0 -10 -13 -10 -30 0 -16 -4
-30 -10 -30 -5 0 -10 3 -10 8 0 11 -76 8 -91 -4 -35 -27 -41 -27 -25 4 8 16
13 32 10 35 -3 3 3 8 14 11 10 4 24 19 31 34 10 22 10 25 0 15 -16 -15 -39
-17 -39 -3 0 6 7 10 15 10 8 0 15 7 15 15 0 8 -7 15 -15 15 -8 0 -15 -7 -15
-15 0 -7 -8 -19 -17 -25 -17 -9 -17 -11 0 -21 23 -14 11 -32 -16 -23 -20 6
-20 6 -4 -10 24 -24 21 -38 -7 -34 -13 1 -30 -3 -38 -10 -11 -9 -23 -10 -42
-2 -17 6 -26 6 -26 0 0 -6 -11 -10 -25 -10 -14 0 -25 -4 -25 -10 0 -5 6 -10
14 -10 8 0 21 -3 29 -6 8 -3 21 1 29 9 12 13 16 11 27 -15 9 -21 18 -27 30
-23 9 3 3 -8 -13 -24 -17 -17 -32 -31 -35 -31 -3 0 0 5 7 12 17 17 15 31 -3
24 -20 -7 -19 4 3 20 16 12 16 13 0 14 -9 0 -19 -8 -22 -18 -4 -10 -15 -28
-26 -39 -17 -19 -23 -20 -49 -10 -16 6 -27 15 -24 19 2 5 12 3 20 -4 13 -10
19 -8 41 17 24 28 24 30 6 33 -10 2 -29 8 -41 14 l-22 11 20 51 c11 28 30 79
42 114 18 54 24 62 46 62 20 0 23 -3 11 -9 -8 -6 -18 -7 -22 -5 -4 3 -8 -4 -8
-15 0 -25 4 -26 24 -5 9 8 24 14 34 12 12 -3 6 -9 -21 -21 -42 -18 -55 -40
-37 -62 13 -16 40 -9 40 10 0 7 7 15 15 19 8 3 15 12 15 20 0 7 10 16 22 20
18 4 20 8 10 18 -7 7 -29 18 -50 23 -45 13 -49 27 -22 89 l22 47 20 -23 c21
-24 51 -26 77 -5 11 9 15 9 18 0 5 -15 33 -18 33 -4 0 5 23 8 52 7 39 -1 53 3
55 14 3 15 -61 21 -209 21 -37 0 -46 3 -41 14 3 8 15 16 27 16 44 3 112 -3
128 -12 10 -6 19 -5 23 1 3 5 24 10 46 10 40 0 52 13 23 24 -9 3 -32 6 -52 6
-35 1 -36 2 -18 15 11 8 31 15 45 15 37 0 106 27 104 39 -2 6 4 11 12 11 23 0
18 18 -7 23 l-23 4 23 8 c26 9 28 23 5 40 -15 11 -15 15 -4 29 11 14 11 16 -2
16 -9 0 -21 8 -26 18 -10 16 -10 16 -11 0 0 -9 5 -20 11 -24 8 -4 7 -9 -2 -16
-11 -8 -11 -11 -1 -15 10 -4 10 -8 2 -18 -8 -9 -8 -20 -2 -32 10 -20 6 -43 -9
-43 -5 0 -9 9 -9 20 0 13 -5 18 -15 14 -10 -4 -15 0 -15 14 0 12 -4 24 -10 27
-5 3 -10 -3 -10 -14 0 -11 -5 -23 -10 -26 -6 -4 -8 -10 -5 -15 7 -11 -22 -33
-37 -28 -8 3 -4 12 11 27 14 14 20 29 16 41 -3 10 -1 21 5 25 15 9 12 74 -5
91 -13 14 -15 13 -15 -4 0 -11 6 -22 13 -25 8 -3 6 -10 -8 -21 -18 -14 -18
-15 -2 -16 9 0 17 -5 17 -11 0 -6 -9 -8 -20 -4 -11 4 -20 2 -20 -4 0 -14 -37
-14 -45 -1 -3 6 -2 10 4 10 13 0 41 29 41 42 0 6 -8 8 -18 6 -15 -4 -17 1 -14
32 5 45 33 63 107 67 117 6 166 10 172 16 8 8 12 8 40 1z m-4419 -91 c-2 -19
-10 -29 -23 -31 -36 -7 -85 -34 -85 -47 0 -10 -16 -8 -65 8 -48 15 -65 26 -65
39 0 10 9 20 23 22 213 43 219 44 215 9z m3222 -344 c0 -5 9 -9 20 -9 11 0 20
7 20 15 0 9 8 19 18 22 9 4 22 14 29 22 7 9 13 11 13 5 0 -7 20 -15 45 -18 24
-4 46 -10 49 -14 6 -10 -47 -7 -63 3 -8 4 -17 2 -22 -6 -15 -23 -10 -39 14
-48 19 -8 20 -10 5 -16 -10 -4 -18 -16 -18 -26 0 -26 16 -24 24 4 l6 22 19
-22 c11 -13 23 -23 28 -23 15 0 37 -44 24 -48 -6 -2 -11 -10 -11 -18 0 -8 -5
-13 -12 -11 -6 1 -14 -11 -18 -28 -4 -16 -9 -34 -10 -40 -5 -15 14 -54 24 -52
16 3 25 -52 14 -84 -14 -40 -24 -36 -32 11 -3 22 -11 40 -16 40 -5 0 -7 7 -4
15 8 19 -7 19 -32 0 -17 -13 -17 -14 -1 -15 10 0 17 -8 17 -20 0 -27 -16 -26
-23 1 -5 18 -11 20 -34 15 l-28 -7 25 17 c14 10 27 20 30 23 3 3 11 6 19 6 8
0 16 6 19 14 3 10 0 12 -14 6 -42 -17 -54 -17 -54 -2 0 8 7 17 15 21 8 3 15
10 15 16 0 5 -7 10 -15 10 -8 0 -15 -3 -15 -7 0 -15 -53 -34 -64 -23 -17 17
-26 11 -26 -14 0 -14 -4 -28 -10 -31 -5 -3 -10 3 -10 14 0 12 -6 21 -12 22
-10 0 -10 2 0 6 6 2 12 11 12 19 0 8 -6 14 -12 14 -14 0 -17 58 -4 78 3 6 2
14 -4 17 -7 5 -8 11 -1 18 5 7 9 41 10 77 0 36 0 71 0 79 1 15 51 -33 51 -50z
m10831 20 c52 1 90 -2 93 -8 4 -6 31 -8 71 -4 36 3 65 3 65 -1 0 -4 -9 -17
-21 -29 -12 -12 -65 -113 -119 -225 l-99 -202 -40 6 c-27 4 -41 3 -41 -4 0 -6
17 -12 38 -14 l37 -3 -22 -22 c-12 -12 -19 -24 -16 -26 8 -9 -21 -47 -37 -47
-13 0 -13 -2 -1 -9 11 -7 9 -14 -11 -33 -13 -14 -22 -31 -20 -38 3 -8 -1 -11
-10 -7 -22 8 -41 -13 -27 -29 8 -10 0 -33 -32 -89 -24 -42 -52 -85 -61 -95
-10 -11 -18 -24 -18 -30 0 -6 -4 -8 -10 -5 -5 3 -8 0 -5 -7 8 -21 -152 -237
-240 -323 -83 -83 -174 -141 -182 -117 -3 6 -18 12 -35 12 -21 0 -31 6 -35 20
-3 11 -14 20 -24 20 -26 0 -24 -14 6 -45 28 -27 21 -32 -20 -13 -14 6 -25 17
-25 25 0 7 -4 13 -9 13 -5 0 -11 11 -13 25 -3 14 -1 25 3 25 5 0 9 7 9 15 0 8
-7 15 -15 15 -29 0 -16 145 30 320 24 91 70 228 80 238 3 3 33 9 67 14 33 4
67 13 75 19 7 7 27 14 45 18 30 6 32 9 35 61 3 55 19 80 50 80 21 0 16 -57 -8
-81 -25 -25 -20 -43 14 -47 15 -2 32 -12 37 -23 8 -14 21 -19 55 -19 25 0 45
-4 45 -10 0 -5 -4 -10 -10 -10 -5 0 -10 -4 -10 -10 0 -5 12 -10 26 -10 17 0
28 6 31 20 6 24 19 26 27 5 8 -22 43 -18 49 5 4 15 0 20 -16 21 -12 0 -16 3
-9 6 15 6 16 33 1 33 -6 0 -19 -5 -29 -10 -14 -8 -29 -6 -55 5 -37 15 -39 35
-4 35 11 0 29 5 39 10 13 7 21 7 25 0 7 -12 75 -14 75 -2 0 5 12 14 26 20 16
8 22 16 17 25 -4 6 -6 20 -5 30 3 12 -4 17 -23 17 -19 0 -26 -5 -24 -17 1 -10
-1 -26 -6 -35 -7 -17 -9 -17 -35 2 -15 11 -33 20 -39 20 -6 0 -11 5 -11 11 0
7 11 8 30 4 17 -4 30 -2 30 3 0 5 12 13 26 16 14 4 24 12 21 19 -6 20 -40 20
-54 1 -13 -18 -14 -18 -20 4 -5 19 -10 22 -30 17 -16 -4 -22 -2 -18 5 3 5 -1
13 -9 16 -9 3 -16 12 -16 20 0 11 -10 13 -42 8 -24 -4 -47 -10 -53 -15 -5 -5
-15 -9 -23 -9 -10 0 -8 7 7 26 31 39 27 62 -14 81 -19 9 -35 22 -35 30 0 7 -9
17 -20 23 -29 16 -24 80 6 80 8 0 14 4 14 9 0 8 62 51 125 87 11 6 37 21 58
32 21 12 45 22 55 22 9 0 31 9 47 20 24 16 39 19 80 13 28 -4 89 -5 136 -4z
m706 -55 c37 -3 104 -6 148 -7 44 0 83 -6 87 -11 14 -20 8 -54 -9 -59 -14 -4
-13 -5 3 -6 31 -1 40 -31 11 -32 -21 -2 -21 -2 -1 -6 13 -2 34 -27 55 -64 31
-56 90 -120 133 -144 17 -10 14 -20 -42 -131 -33 -66 -67 -126 -76 -133 -21
-18 -125 -6 -190 22 -26 11 -54 20 -62 20 -8 0 -14 4 -14 9 0 4 -18 11 -40 14
-22 4 -43 11 -46 15 -3 5 -25 9 -49 9 -54 0 -53 -19 3 -47 20 -10 48 -26 62
-36 14 -9 35 -18 45 -19 11 -2 49 -19 85 -37 42 -22 65 -30 68 -22 2 7 8 8 15
3 7 -5 24 -12 40 -16 15 -3 27 -12 27 -18 0 -37 -281 -479 -397 -623 -161
-202 -272 -279 -366 -254 -33 9 -42 17 -59 57 -18 40 -20 58 -14 136 7 99 41
275 55 289 6 6 21 1 38 -11 23 -16 40 -20 79 -16 27 3 63 5 81 5 20 -1 36 6
43 17 8 12 13 13 16 5 8 -17 55 -16 78 2 20 15 20 15 0 30 -24 18 -34 19 -34
1 0 -24 -19 -29 -46 -11 -15 9 -34 15 -43 12 -9 -2 -23 2 -30 10 -7 8 -19 12
-27 9 -8 -3 -14 0 -14 7 0 8 -4 7 -10 -3 -8 -12 -10 -12 -16 3 -3 9 0 24 7 33
10 13 10 17 -2 25 -20 12 -36 11 -69 -6 -22 -11 -28 -12 -26 -3 2 7 26 78 52
156 36 110 52 146 68 152 17 7 18 9 4 9 -16 1 -16 6 6 64 13 34 28 63 35 63
22 3 23 4 12 18 -10 12 0 45 48 164 115 287 151 360 174 364 12 2 25 3 29 1 3
-2 37 -6 75 -9z m687 -79 c31 -18 51 -23 73 -19 18 4 33 1 37 -5 4 -6 16 -11
27 -11 10 0 19 -4 19 -9 0 -5 13 -12 30 -16 16 -4 32 -11 35 -16 4 -5 16 -9
28 -10 22 0 22 0 -1 -10 -30 -12 -87 2 -87 22 0 9 -9 13 -27 11 -14 -2 -29 2
-33 7 -3 6 -13 11 -22 11 -14 0 -12 -4 6 -23 19 -21 20 -25 6 -37 -8 -7 -15
-18 -15 -24 0 -16 -133 -15 -143 2 -4 6 -15 12 -24 12 -10 0 -13 6 -9 16 3 9
6 19 6 24 0 5 13 11 29 15 16 3 37 15 47 26 17 18 16 19 -19 19 -39 0 -45 8
-25 28 15 15 12 16 62 -13z m-5898 -60 c18 -27 37 -34 28 -10 -5 11 11 7 56
-14 76 -36 77 -37 50 -51 -22 -12 -22 -13 21 -56 24 -24 39 -44 33 -44 -5 0
-27 18 -48 39 -34 35 -66 45 -66 21 0 -21 46 -79 60 -75 10 3 15 -3 15 -20 0
-22 -2 -23 -20 -11 -11 7 -33 32 -48 55 -22 32 -34 41 -58 41 -16 0 -29 5 -29
10 0 6 5 10 11 10 8 0 8 4 0 14 -6 7 -9 21 -5 29 3 10 -4 25 -19 39 -13 13
-22 29 -20 36 7 19 21 14 39 -13z m514 -256 c245 -147 465 -310 638 -473 54
-51 63 -70 37 -80 -8 -3 -15 -12 -15 -21 0 -8 -7 -15 -15 -15 -9 0 -18 -12
-21 -30 -4 -16 -13 -30 -20 -30 -8 0 -14 -7 -14 -15 0 -8 -4 -15 -10 -15 -5 0
-21 -13 -36 -29 -14 -16 -37 -31 -52 -34 -22 -4 -24 -3 -11 6 9 7 19 21 22 32
4 11 20 35 37 53 16 18 30 41 30 52 0 10 7 21 16 24 9 3 14 12 11 20 -3 7 -1
18 5 24 15 15 2 42 -21 42 -24 0 -54 -45 -58 -90 -5 -44 -10 -48 -27 -24 -10
13 -11 24 -5 36 7 13 6 18 -2 18 -6 0 0 9 15 21 35 28 33 43 -4 36 -22 -5 -30
-3 -30 8 0 11 8 13 30 9 38 -8 42 16 6 36 -29 15 -61 6 -52 -15 3 -9 0 -15 -9
-15 -21 0 -27 17 -14 41 10 19 8 25 -12 40 -13 10 -32 19 -41 19 -22 0 -34
-20 -18 -30 9 -5 9 -9 1 -14 -17 -11 -13 -23 12 -31 l22 -8 -22 -4 c-13 -2
-23 -11 -23 -18 0 -9 -10 -14 -27 -12 -16 1 -41 -2 -56 -6 -19 -5 -27 -4 -22
3 3 5 17 10 31 10 28 0 34 29 7 31 -16 1 -16 2 -1 6 24 6 21 64 -4 71 -10 2
-18 9 -18 14 0 14 -43 5 -48 -9 -2 -7 4 -13 13 -13 25 0 46 -25 32 -39 -6 -6
-15 -11 -20 -11 -13 0 -77 -66 -77 -80 0 -5 -7 -10 -15 -10 -9 0 -15 9 -15 25
0 14 -8 29 -20 35 -11 6 -20 15 -20 20 0 16 22 11 35 -7 13 -17 14 -17 33 1
12 10 25 15 31 11 7 -4 8 0 4 10 -4 13 -14 15 -34 11 -22 -4 -29 -2 -29 9 0 8
-6 15 -12 16 -10 0 -10 2 0 6 19 7 15 35 -5 31 -10 -2 -17 -11 -17 -21 1 -9
-2 -17 -7 -17 -5 0 -9 -7 -9 -15 0 -9 -8 -14 -22 -12 -17 1 -23 -3 -22 -15 1
-13 -5 -18 -22 -18 -24 0 -32 14 -15 24 5 4 12 0 14 -6 3 -8 6 -6 6 4 1 10 9
22 19 27 14 8 18 22 17 78 0 61 -2 68 -20 68 -17 0 -20 -7 -20 -45 -1 -25 6
-53 14 -62 10 -13 11 -18 2 -18 -7 0 -19 -7 -27 -15 -27 -26 -44 -18 -44 20 0
37 -22 57 -41 38 -16 -16 0 -129 22 -151 15 -17 16 -22 3 -40 -10 -15 -12 -27
-4 -47 13 -33 13 -45 0 -45 -5 0 -10 7 -10 15 0 8 -9 15 -20 15 -22 0 -26 10
-9 27 8 8 5 13 -11 18 -13 4 -18 10 -13 14 5 3 13 20 16 37 5 28 3 33 -23 44
-19 8 -30 20 -30 32 0 10 4 17 8 14 4 -3 8 18 7 46 -1 36 -6 53 -18 60 -12 6
-17 22 -17 49 0 26 -5 42 -15 45 -12 5 -13 10 -4 20 6 7 8 18 5 23 -4 5 -2 13
4 16 8 5 8 11 0 20 -8 10 -8 15 0 20 8 5 8 10 0 20 -8 10 -8 15 0 20 8 5 6 12
-5 25 -14 16 -14 18 0 23 17 7 20 42 5 52 -12 8 26 45 45 45 6 0 72 -36 145
-81z m-3397 -79 c-3 -11 -1 -20 4 -20 13 0 35 -102 27 -126 -4 -14 -3 -15 4
-6 7 11 10 9 15 -7 3 -12 1 -21 -5 -21 -5 0 -6 -9 -3 -20 7 -23 -13 -28 -21
-6 -3 8 -12 12 -20 9 -11 -4 -12 -9 -4 -19 9 -10 2 -17 -30 -34 -42 -21 -60
-20 -60 6 0 8 -10 14 -26 14 -32 0 -80 35 -63 46 7 4 17 0 24 -10 10 -13 19
-15 51 -7 32 7 34 9 12 10 -30 1 -47 19 -28 31 8 5 7 9 -6 14 -16 6 -16 8 6
19 13 7 25 19 27 27 4 12 3 12 -5 2 -8 -11 -10 -11 -15 1 -3 8 -3 18 0 21 10
10 43 7 43 -4 0 -5 9 -10 19 -10 21 0 31 19 31 55 0 29 10 55 20 55 5 0 6 -9
3 -20z m3651 -567 c4 -10 -1 -28 -14 -45 -24 -33 -25 -38 -5 -38 8 0 15 6 15
14 0 11 14 15 53 15 52 0 53 -1 51 -29 -4 -64 -16 -109 -31 -114 -11 -5 -14
-15 -9 -44 3 -20 3 -31 0 -24 -3 6 -15 12 -27 12 -20 1 -20 2 -4 11 21 12 22
35 2 43 -21 8 -19 26 3 27 13 0 11 3 -6 10 l-24 9 22 27 c20 26 20 28 3 40
-15 12 -18 11 -25 -6 -9 -26 -25 -34 -32 -16 -3 8 -12 15 -21 15 -21 0 -19 16
5 40 11 11 20 31 20 45 0 29 15 33 24 8z"/>
<path d="M13646 14341 c-4 -5 -2 -21 4 -36 14 -37 12 -64 -5 -81 -18 -19 -20
-53 -2 -58 6 -2 41 -13 77 -24 59 -19 66 -20 82 -5 13 12 17 29 16 64 -2 52
-6 55 -41 38 -19 -9 -18 -7 3 10 27 22 27 22 -12 39 -23 10 -28 9 -28 -3 0 -8
-3 -15 -8 -15 -4 0 -6 -18 -4 -40 3 -25 0 -40 -7 -40 -6 0 -11 15 -11 33 0 18
-7 43 -16 55 -9 13 -13 26 -9 30 3 4 11 -1 17 -11 8 -14 13 -16 24 -6 18 15
18 33 0 48 -11 9 -17 8 -29 -4 -20 -19 -31 -19 -23 0 6 16 -19 21 -28 6z"/>
<path d="M17130 16098 c0 -20 8 -27 39 -38 24 -8 56 -10 81 -6 45 7 93 -1 84
-15 -7 -12 -154 -11 -154 1 0 6 -38 10 -95 10 -72 0 -95 -3 -95 -13 0 -12 -51
-64 -57 -59 -2 1 -6 2 -10 2 -5 0 -2 -4 4 -8 7 -4 29 -6 48 -4 27 3 39 11 50
32 11 20 21 27 37 25 37 -4 80 -17 107 -31 14 -8 36 -14 49 -14 12 0 22 -3 22
-8 0 -4 17 -6 39 -4 21 2 42 -1 45 -7 15 -24 -165 1 -198 28 -6 5 -26 12 -43
16 -29 6 -34 4 -43 -20 -5 -14 -10 -41 -10 -60 0 -33 1 -34 55 -40 30 -4 55
-12 55 -17 0 -7 -20 -8 -55 -3 l-55 6 0 -38 c0 -21 -3 -48 -6 -61 -5 -18 -3
-21 10 -16 9 3 16 14 16 25 0 21 20 69 29 69 3 -1 21 -14 40 -30 33 -28 61
-30 61 -4 0 8 4 14 9 14 5 0 11 10 14 23 3 20 4 20 12 4 5 -13 0 -27 -22 -50
-28 -31 -29 -34 -21 -84 9 -51 11 -53 36 -47 37 9 43 14 36 26 -4 6 1 8 15 3
20 -6 30 -1 69 36 9 9 27 22 40 28 13 7 21 18 19 26 -4 8 1 11 13 8 19 -5 90
32 90 46 0 14 -23 29 -36 24 -8 -3 -14 0 -14 6 0 6 8 11 17 11 30 0 -18 29
-60 36 -47 8 -59 24 -17 24 40 0 78 -20 112 -59 25 -27 30 -29 57 -20 28 10
29 12 19 42 -14 41 -81 132 -112 152 -20 14 -26 13 -54 -1 -18 -8 -38 -14 -45
-11 -6 2 3 12 22 21 56 29 26 41 -119 45 l-130 3 0 -24z"/>
<path d="M16645 15940 c-10 -11 -27 -20 -38 -20 -11 0 -35 -9 -53 -21 -26 -16
-31 -24 -24 -37 5 -9 11 -25 14 -35 3 -10 19 -24 36 -30 22 -8 32 -21 42 -54
7 -24 16 -43 21 -43 4 0 3 -9 -3 -19 -14 -26 -13 -98 1 -103 8 -3 6 -15 -7
-38 -10 -19 -18 -38 -19 -42 0 -3 -3 -10 -7 -14 -5 -4 -8 -22 -8 -41 0 -18 -4
-33 -9 -33 -12 0 -19 -56 -10 -72 11 -18 49 19 49 48 0 12 4 24 8 26 4 2 25
35 46 73 21 39 53 84 72 101 19 17 34 35 34 41 0 6 9 13 21 16 11 3 23 15 26
26 4 15 13 21 34 21 23 0 29 5 29 21 0 15 4 19 16 15 9 -4 31 -1 49 5 25 9 35
20 39 42 8 40 8 107 -1 107 -3 0 -26 -21 -50 -46 -25 -25 -47 -43 -50 -40 -4
3 -12 1 -19 -5 -17 -14 -68 -3 -58 12 3 6 17 8 30 5 14 -4 24 -2 24 4 0 5 7
10 15 10 19 0 101 83 110 109 5 17 0 19 -57 19 -48 -1 -73 -7 -105 -25 -24
-14 -43 -28 -43 -31 0 -4 -18 -27 -40 -51 -22 -25 -40 -50 -40 -57 0 -6 -7
-14 -15 -18 -8 -3 -15 -11 -15 -18 0 -7 -9 -19 -20 -26 -29 -18 -25 -6 17 57
44 65 136 161 155 161 9 0 9 3 -2 10 -19 12 -91 13 -123 1 -18 -7 -31 -27 -49
-72 -26 -70 -52 -93 -42 -37 4 18 13 40 20 49 8 8 14 19 14 24 0 5 7 17 17 27
14 15 14 18 1 18 -8 0 -23 -9 -33 -20z"/>
<path d="M17766 15384 c-3 -9 -6 -26 -6 -39 0 -14 -7 -25 -20 -28 -11 -3 -20
-12 -20 -21 0 -9 -9 -26 -20 -38 -11 -12 -20 -30 -20 -40 0 -12 -7 -18 -22
-18 -14 0 -49 -23 -85 -55 -46 -41 -69 -55 -92 -55 -26 0 -30 -4 -28 -22 2
-18 -4 -24 -25 -26 -22 -3 -28 -8 -28 -28 0 -24 2 -25 48 -18 26 4 61 18 78
30 17 13 36 24 43 24 7 0 29 9 49 20 64 34 189 90 201 90 6 0 30 9 51 20 27
14 40 27 40 41 0 15 5 19 15 16 8 -4 17 -2 20 3 4 6 25 10 47 10 l42 0 -29 30
c-16 16 -38 32 -49 36 -38 10 -66 27 -66 40 0 34 -112 59 -124 28z"/>
<path d="M18000 15055 c-14 -8 -31 -14 -39 -15 -7 0 -26 -11 -43 -25 -19 -16
-42 -25 -64 -25 -19 0 -34 -2 -34 -5 0 -11 27 -49 57 -79 20 -21 34 -47 38
-72 9 -58 31 -101 54 -109 30 -9 30 -104 0 -144 -13 -18 -19 -39 -17 -61 l3
-34 44 57 c38 50 42 61 37 91 -4 20 0 65 10 105 15 70 15 72 -6 108 -21 36
-21 36 -2 82 30 72 35 119 12 131 -23 12 -19 12 -50 -5z"/>
<path d="M10040 14621 c0 -11 5 -23 10 -26 15 -9 12 -25 -4 -25 -22 0 -29 -18
-27 -73 2 -58 -27 -224 -40 -233 -5 -3 -9 -9 -9 -14 0 -11 49 9 67 26 7 7 17
14 23 16 17 5 29 72 36 190 l7 108 -27 25 c-33 30 -36 31 -36 6z"/>
<path d="M18186 14595 c-8 -8 -19 -15 -25 -15 -28 0 -16 -21 26 -45 38 -21 52
-24 65 -16 24 15 28 14 28 -8 0 -10 -9 -21 -20 -24 -31 -8 -26 -97 6 -97 8 0
14 -7 14 -15 0 -8 -6 -15 -13 -15 -18 0 -47 37 -47 59 0 40 -13 82 -29 91 -15
7 -16 3 -13 -28 2 -20 11 -43 20 -49 9 -8 11 -13 4 -13 -7 0 -12 -11 -12 -25
0 -14 6 -25 13 -25 9 0 9 -2 0 -8 -30 -19 23 -117 74 -138 41 -17 114 -18 136
-1 16 11 16 14 2 35 -9 12 -24 22 -34 22 -9 0 -34 16 -55 35 -38 34 -38 36
-21 55 10 11 24 20 32 20 7 0 13 4 13 8 0 16 63 31 109 25 31 -3 51 -1 55 6 4
6 0 11 -11 12 -14 0 -14 2 5 9 23 10 29 43 13 69 -16 25 -41 4 -41 -34 0 -19
-4 -35 -10 -35 -5 0 -10 11 -10 25 0 13 -8 29 -17 35 -17 10 -17 10 0 20 9 6
17 15 17 20 0 15 -87 53 -109 47 -12 -3 -19 -1 -15 4 10 16 -133 11 -150 -6z"/>
<path d="M15967 14570 c-3 -11 -14 -20 -24 -20 -10 0 -24 -5 -31 -12 -9 -9
-12 -9 -12 0 0 7 -7 12 -16 12 -10 0 -14 -6 -10 -15 4 -11 -1 -15 -17 -15 -13
0 -40 -9 -62 -20 -22 -11 -48 -20 -60 -20 -29 -1 -55 -24 -55 -50 0 -16 -4
-20 -16 -16 -10 4 -14 1 -11 -6 2 -7 11 -12 19 -10 9 1 18 -7 22 -21 5 -22 10
-24 58 -21 29 1 74 3 101 3 43 1 47 3 47 25 0 13 3 32 6 41 7 18 71 48 85 39
20 -12 7 26 -13 40 -12 9 -18 19 -14 23 4 4 10 3 14 -2 14 -19 27 -13 55 26
l28 39 -44 0 c-36 0 -46 -4 -50 -20z"/>
<path d="M18391 14159 c-60 -76 -64 -146 -11 -194 16 -15 18 -14 25 12 3 15
26 63 51 105 49 86 50 90 28 112 -27 27 -51 18 -93 -35z"/>
<path d="M12599 12958 c-14 -6 -31 -20 -38 -30 -10 -17 -9 -22 6 -33 10 -7 14
-17 10 -22 -5 -4 -14 0 -22 10 -12 17 -14 16 -44 -9 -17 -14 -31 -21 -31 -15
0 5 7 16 16 23 38 31 54 49 54 58 0 17 -25 11 -38 -10 -9 -15 -23 -20 -52 -20
-33 0 -40 -3 -40 -20 0 -12 -7 -20 -17 -21 -15 0 -15 -2 -3 -7 15 -7 26 -33
13 -31 -29 5 -45 -5 -54 -31 -6 -16 -15 -27 -20 -24 -5 3 -9 -5 -9 -18 0 -13
-6 -30 -12 -36 -8 -8 -9 -15 -3 -20 6 -4 10 -13 10 -21 0 -33 121 -35 158 -3
9 8 17 23 17 34 0 13 7 18 25 18 26 0 34 -14 13 -24 -7 -3 29 -4 80 -2 53 3
100 10 109 17 12 10 16 10 24 -2 8 -12 11 -11 23 4 7 9 18 17 25 17 16 0 14
21 -6 42 -10 11 -12 18 -4 18 8 0 11 18 10 55 -2 52 -11 70 -22 43 -4 -9 -8
-10 -14 -2 -11 15 -71 23 -77 10 -3 -7 -8 -5 -15 4 -8 12 -11 12 -17 -3 -6
-17 -7 -17 -19 0 -16 21 -10 34 11 26 12 -4 15 -1 12 13 -4 22 -23 26 -59 12z"/>
<path d="M13437 11663 c-12 -12 -7 -58 9 -81 14 -20 14 -23 0 -28 -9 -3 -16
-13 -16 -20 0 -8 -7 -17 -15 -20 -13 -5 -23 -54 -10 -54 22 0 55 27 55 45 0
15 11 27 35 38 20 9 41 17 48 17 7 0 18 4 26 9 12 8 7 18 -26 50 -31 32 -42
38 -47 26 -8 -21 -27 -19 -33 5 -5 21 -15 25 -26 13z"/>
<path d="M11013 10517 c-9 -18 -6 -25 14 -40 13 -10 21 -22 18 -28 -4 -5 3 -9
15 -9 16 0 21 -5 18 -22 -2 -18 1 -22 17 -19 41 8 49 5 53 -14 2 -11 11 -28
19 -37 8 -9 12 -21 9 -27 -4 -5 -2 -12 4 -16 5 -3 10 -11 10 -17 0 -7 -6 -6
-15 2 -8 7 -15 21 -15 31 0 10 -12 30 -27 44 -47 43 -56 30 -23 -37 23 -48 23
-48 11 -48 -4 0 -12 15 -17 33 -6 17 -16 33 -24 33 -8 1 -26 2 -40 3 l-25 2
23 16 c12 8 22 19 22 23 0 5 -10 6 -22 3 -19 -4 -20 -3 -8 6 12 9 11 11 -8 11
-12 0 -38 7 -57 14 -48 20 -44 5 6 -23 37 -21 39 -24 22 -37 -16 -12 -16 -13
-2 -14 20 0 33 -27 18 -36 -6 -3 -16 -1 -22 5 -14 14 -37 14 -37 1 0 -5 7 -10
15 -10 18 0 20 -36 3 -44 -10 -5 -10 -7 0 -12 19 -9 14 -26 -14 -49 -23 -18
-24 -23 -14 -50 6 -17 24 -42 41 -57 16 -15 29 -33 29 -40 -1 -8 -7 -5 -18 8
-10 11 -30 29 -45 38 -15 10 -27 26 -27 36 0 10 -7 26 -16 34 -8 9 -11 16 -5
16 6 0 -3 20 -21 44 -18 27 -36 42 -44 39 -18 -7 -18 -19 1 -27 8 -3 12 -12 9
-20 -5 -12 -11 -13 -24 -6 -24 13 -30 13 -30 0 0 -5 6 -10 13 -10 8 0 22 -9
32 -20 10 -11 23 -20 29 -20 6 0 19 -18 29 -40 10 -22 25 -40 33 -40 8 0 14
-6 13 -12 -3 -29 2 -36 22 -31 19 5 21 3 15 -20 -5 -23 -3 -27 15 -27 15 0 20
-5 18 -22 -4 -31 8 -48 29 -42 12 4 13 3 4 -3 -10 -7 -8 -14 8 -28 29 -26 104
-23 175 6 52 21 59 22 83 8 15 -8 40 -38 55 -67 34 -62 63 -78 113 -62 23 8
36 20 40 36 6 25 -3 40 -107 157 -71 80 -120 188 -111 246 6 43 -5 79 -26 83
-13 3 -10 8 16 23 31 19 42 35 23 35 -6 0 -13 -4 -16 -10 -3 -5 -13 -10 -21
-10 -18 0 -19 56 -1 63 6 2 9 8 4 12 -13 14 -47 -33 -47 -65 0 -28 -2 -29 -20
-18 -24 15 -27 58 -5 58 8 0 15 5 15 10 0 6 -7 13 -15 16 -8 4 -15 12 -15 19
0 17 -6 20 -45 29 -27 6 -28 5 -12 -7 40 -32 8 -50 -34 -19 -13 10 -37 24 -52
32 -18 9 -24 16 -15 19 17 5 28 23 22 33 -10 15 -31 8 -41 -15z"/>
<path d="M20485 10031 c-6 -5 -19 -11 -30 -14 -11 -2 -4 -4 15 -4 20 0 64 -10
98 -22 35 -12 67 -19 73 -16 5 4 9 2 9 -4 0 -6 16 -13 35 -17 41 -7 44 -16 13
-32 -38 -18 -51 -19 -76 -6 -14 7 -31 10 -38 7 -8 -3 -14 -1 -14 5 0 13 -54
32 -91 32 -15 0 -31 5 -34 10 -10 16 -55 12 -62 -6 -3 -9 3 -21 16 -30 11 -8
21 -21 21 -27 1 -20 46 -69 61 -66 8 2 26 -5 40 -14 42 -28 85 -37 105 -22 16
12 16 13 -5 24 -13 7 -21 15 -18 17 6 7 99 -45 113 -62 6 -8 25 -17 41 -20 26
-5 37 0 72 31 37 33 57 66 31 50 -5 -3 -10 -1 -10 4 0 6 -9 11 -21 11 -11 0
-27 7 -35 15 -9 8 -24 15 -35 15 -17 0 -18 3 -7 23 7 12 17 25 22 28 10 8 -40
31 -104 49 -25 6 -53 16 -62 21 -10 5 -29 9 -42 9 -14 0 -28 5 -31 10 -8 12
-38 13 -50 1z"/>
<path d="M17870 9733 c0 -9 7 -24 15 -33 8 -9 17 -36 19 -59 2 -23 11 -50 20
-60 9 -9 16 -24 16 -33 0 -8 11 -20 24 -27 13 -7 23 -20 22 -28 -2 -23 19 -27
38 -8 9 9 20 13 26 10 13 -8 13 1 0 26 -7 12 -21 19 -40 19 -25 0 -30 4 -30
25 0 15 -6 25 -14 25 -17 0 -29 27 -16 35 19 12 10 70 -15 98 -27 30 -65 37
-65 10z"/>
<path d="M9770 9533 c-8 -3 -33 -18 -55 -33 l-40 -28 -135 19 c-254 34 -413
21 -521 -44 -65 -39 -99 -92 -99 -157 0 -52 18 -83 60 -105 46 -24 46 -18 0
23 -40 35 -43 40 -36 75 14 75 99 138 231 172 67 17 225 21 383 10 93 -7 117
-14 93 -29 -17 -11 -79 -112 -126 -204 -35 -71 -50 -92 -66 -92 -15 0 -19 -5
-15 -18 4 -11 -11 -39 -45 -80 -63 -78 -59 -93 5 -20 25 29 46 49 46 44 0 -5
-20 -65 -45 -134 -25 -68 -44 -127 -41 -129 14 -14 71 37 134 120 83 109 153
177 182 177 11 0 20 -2 20 -4 0 -2 -16 -37 -35 -79 -46 -99 -54 -154 -28 -186
37 -46 107 -25 195 56 47 45 48 45 48 20 0 -100 121 -137 246 -77 53 26 141
105 168 151 14 24 2 15 -45 -33 -90 -91 -202 -142 -273 -124 -39 10 -48 36
-31 93 35 118 265 293 265 202 0 -32 -60 -88 -136 -125 -41 -21 -74 -39 -74
-41 0 -10 69 11 120 37 75 38 112 79 113 124 1 46 -14 61 -63 60 -73 -2 -160
-67 -317 -237 -29 -31 -71 -68 -92 -83 -96 -63 -113 24 -35 179 47 95 53 124
28 134 -34 13 -129 -63 -252 -200 -29 -32 -52 -53 -52 -45 1 7 15 50 33 94 30
77 36 85 112 145 170 136 255 228 275 300 15 52 -42 94 -100 72z"/>
<path d="M12515 9526 c-74 -32 -151 -127 -230 -285 -29 -58 -54 -95 -66 -98
-11 -3 -19 -14 -19 -27 0 -30 -163 -213 -226 -254 -53 -36 -66 -38 -84 -17
-21 25 -6 86 46 192 l49 98 62 8 c99 12 123 28 36 24 -40 -3 -73 -2 -73 2 0
12 59 107 74 120 34 29 5 78 -32 55 -8 -6 -34 -45 -58 -89 -34 -64 -49 -81
-75 -89 -38 -13 -51 -36 -20 -36 29 0 26 -13 -16 -78 -75 -113 -211 -232 -249
-218 -37 14 3 122 86 231 29 39 53 77 54 85 1 12 -16 16 -82 18 l-83 3 32 55
c17 30 29 58 26 60 -10 10 -64 -25 -96 -61 -33 -38 -38 -54 -20 -72 14 -14 -4
-49 -73 -140 -75 -99 -128 -140 -163 -127 -21 8 -19 28 10 82 28 52 32 103 11
121 -19 16 -31 -4 -27 -42 3 -36 -17 -87 -35 -87 -8 0 -14 -10 -14 -24 0 -45
-78 -116 -129 -116 -55 0 -68 82 -26 167 32 64 124 153 159 153 14 0 30 -8 35
-17 9 -16 10 -16 11 4 0 35 -41 57 -84 45 -53 -15 -99 -56 -151 -133 -52 -76
-150 -172 -201 -197 -27 -12 -36 -13 -49 -2 -27 22 -17 80 30 180 25 52 45
105 45 118 0 65 -77 23 -209 -113 -56 -59 -104 -105 -106 -103 -2 1 17 52 41
112 33 83 41 112 31 118 -31 20 -43 -1 -103 -172 -34 -96 -60 -176 -59 -178
13 -14 76 45 149 137 88 112 140 161 169 161 23 0 22 -8 -18 -91 -37 -79 -48
-156 -25 -184 18 -21 88 -19 127 4 17 11 56 44 85 74 l54 55 0 -49 c0 -110
109 -140 202 -55 35 32 36 33 63 17 26 -15 31 -15 64 4 40 21 104 94 178 204
40 59 53 71 75 71 31 0 74 -20 79 -36 2 -6 -24 -44 -57 -85 -87 -106 -105
-187 -49 -218 43 -24 102 5 193 97 l77 77 -16 -44 c-30 -86 -13 -136 47 -134
19 0 49 8 66 17 28 14 117 102 216 211 l36 40 -46 -129 c-24 -71 -47 -133 -51
-139 -9 -14 39 3 61 22 10 9 46 52 79 96 77 100 152 175 178 175 25 0 24 -6
-12 -84 -95 -203 -3 -283 155 -136 l63 60 0 -42 c0 -33 6 -47 27 -64 70 -61
192 -37 314 62 l32 27 0 -26 c0 -32 52 -77 88 -77 38 0 87 33 159 106 35 35
65 64 67 64 3 0 0 -15 -5 -32 -10 -38 -12 -99 -3 -123 10 -25 47 -35 89 -24
45 13 188 146 216 201 21 42 30 46 50 22 7 -8 30 -24 50 -35 21 -10 44 -28 52
-40 28 -39 -7 -103 -81 -150 -74 -47 -138 -34 -91 18 21 22 21 24 4 15 -61
-31 -67 -82 -11 -82 89 0 206 64 232 127 20 47 7 65 -77 113 -50 28 -65 41
-67 62 -7 57 125 155 224 166 48 5 60 -11 39 -51 -10 -20 -10 -25 0 -21 18 7
37 53 30 74 -8 25 -61 42 -104 34 -100 -19 -191 -83 -217 -151 -27 -74 -79
-147 -152 -213 -71 -65 -103 -80 -128 -59 -24 20 -11 99 27 178 25 51 29 65
18 72 -8 5 -18 9 -22 9 -5 0 -55 -47 -111 -104 -115 -116 -173 -159 -208 -154
-59 8 -20 107 80 199 93 86 199 128 252 99 18 -10 21 -9 18 2 -10 29 -59 42
-116 30 -82 -17 -166 -75 -277 -188 -78 -80 -114 -109 -165 -133 -115 -55
-190 -35 -177 46 13 76 126 202 216 240 30 13 36 13 49 -1 26 -26 -18 -80
-113 -136 -27 -16 -58 -30 -67 -30 -10 0 -18 -5 -18 -10 0 -30 169 47 205 94
32 42 33 89 3 110 -31 22 -46 20 -119 -16 -50 -24 -93 -60 -194 -163 -135
-136 -182 -168 -211 -144 -27 22 -13 99 35 190 60 115 53 160 -21 124 -18 -10
-85 -69 -147 -133 -63 -64 -112 -110 -109 -102 3 8 18 50 34 94 28 77 31 80
124 155 52 42 125 106 162 142 104 102 135 195 72 219 -32 13 -42 12 -79 -4z
m85 -44 c0 -37 -56 -117 -139 -199 -80 -79 -161 -140 -161 -122 0 22 92 177
142 238 81 100 158 141 158 83z"/>
<path d="M9384 9391 c-45 -27 -104 -101 -104 -129 0 -14 -31 -84 -69 -157 -82
-156 -121 -248 -121 -287 0 -24 4 -28 28 -28 30 0 55 22 88 75 l18 30 -36 -34
c-36 -33 -58 -35 -58 -5 0 29 101 229 164 324 74 110 144 180 180 180 32 0 26
22 -10 39 -34 15 -44 14 -80 -8z"/>
<path d="M5966 9380 c-22 -11 -47 -20 -55 -20 -9 0 -31 -9 -49 -20 -18 -11
-41 -20 -52 -20 -11 0 -20 -4 -20 -10 0 -5 -6 -10 -14 -10 -22 0 -122 -49
-138 -68 -45 -51 -44 -95 1 -90 19 2 25 8 23 21 -2 10 2 25 8 32 7 8 9 18 6
24 -3 5 2 12 11 15 15 6 32 -8 33 -27 0 -5 -9 -11 -20 -14 -11 -3 -20 -12 -20
-19 0 -8 9 -14 20 -14 11 0 20 5 20 10 0 6 8 10 17 10 15 0 15 -1 -2 -13 -28
-21 -7 -47 23 -29 10 7 10 15 2 36 -12 34 6 110 26 102 6 -2 21 2 32 10 27 19
40 -1 17 -26 -15 -17 -15 -19 1 -28 9 -5 17 -20 18 -33 1 -17 7 -24 21 -24 17
0 20 7 22 54 1 41 -2 58 -15 68 -14 10 -15 12 -2 13 8 0 32 9 52 20 l36 19 8
-27 c4 -15 8 -42 8 -60 1 -31 29 -63 43 -49 3 3 6 44 7 91 2 66 -1 86 -12 91
-17 6 -9 8 -56 -15z"/>
<path d="M6059 9343 c-2 -29 0 -84 3 -115 1 -10 10 -18 20 -18 17 0 22 10 19
38 -1 6 5 12 13 12 10 0 15 -8 13 -22 -1 -18 5 -25 31 -33 17 -5 32 -13 32
-17 0 -10 -1 -10 -46 5 -34 11 -51 12 -101 8 -16 -1 -17 -28 -3 -33 6 -2 -3
-9 -20 -15 -30 -11 -31 -10 -37 17 -5 26 -8 28 -27 18 -19 -10 -20 -10 -7 6
18 22 23 66 8 66 -8 0 -8 3 1 12 19 19 14 28 -14 28 -21 0 -25 -4 -21 -20 3
-10 0 -22 -7 -25 -8 -3 -8 -7 1 -11 9 -4 10 -11 3 -25 -8 -14 -7 -19 1 -19 8
0 8 -4 -1 -15 -9 -10 -9 -15 -1 -15 6 0 11 -4 11 -9 0 -5 -23 -8 -50 -8 -37 1
-49 4 -46 14 3 7 0 15 -6 19 -7 4 -6 9 3 15 11 7 11 11 1 21 -20 20 -46 -3
-47 -44 -2 -47 -11 -58 -46 -58 -16 0 -29 -5 -29 -12 0 -9 -3 -9 -12 0 -7 7
-29 12 -49 12 -20 0 -42 7 -49 15 -18 22 -51 19 -57 -5 -3 -11 -9 -20 -14 -20
-21 0 -8 -58 20 -84 26 -25 41 -29 148 -41 147 -16 191 -33 199 -75 4 -16 9
-30 12 -30 14 0 90 51 96 65 3 8 11 15 18 15 17 1 63 41 77 69 7 12 17 21 24
20 24 -3 40 1 33 8 -4 4 7 14 23 23 16 8 51 26 77 39 99 51 278 159 282 170 3
9 -11 10 -49 6 -65 -8 -83 -8 -131 1 -39 6 -48 -2 -25 -25 10 -10 4 -11 -29
-5 -27 4 -44 2 -48 -5 -11 -17 -25 -3 -19 19 4 16 0 20 -21 20 -23 0 -25 -2
-16 -19 7 -13 7 -22 0 -26 -5 -3 -10 -16 -10 -28 -1 -21 -1 -21 -15 -3 -10 13
-11 23 -5 31 14 17 -14 39 -37 30 -25 -9 -28 -5 -28 40 0 34 -3 40 -22 43 -19
3 -23 -2 -24 -25z"/>
<path d="M14117 9288 c-20 -35 -41 -75 -48 -90 -7 -16 -20 -28 -30 -28 -28 0
-49 -11 -49 -26 0 -8 9 -14 20 -14 11 0 20 -3 20 -6 0 -10 -89 -140 -105 -154
-8 -7 -15 -20 -15 -29 0 -11 8 -7 26 14 25 29 25 29 19 5 -26 -100 -26 -102
-10 -126 35 -55 126 -22 221 78 77 81 87 113 12 36 -124 -126 -188 -149 -188
-67 0 43 45 160 85 220 22 34 28 37 87 43 95 10 111 29 20 22 l-73 -5 31 55
c17 30 40 64 51 75 27 27 21 53 -13 57 -23 3 -31 -4 -61 -60z"/>
<path d="M15007 9288 c-20 -35 -41 -75 -48 -90 -7 -16 -20 -28 -30 -28 -28 0
-49 -11 -49 -26 0 -8 9 -14 20 -14 11 0 20 -3 20 -6 0 -10 -89 -140 -105 -154
-8 -7 -15 -20 -15 -29 0 -11 8 -7 26 14 25 29 25 29 19 5 -26 -100 -26 -102
-10 -126 34 -53 109 -30 206 63 l57 54 0 -46 c0 -107 108 -134 200 -51 35 31
38 33 59 19 15 -10 32 -13 50 -8 37 9 115 91 188 198 l60 88 43 -6 c24 -2 48
-7 53 -11 20 -12 7 -42 -42 -99 -77 -91 -99 -147 -80 -198 23 -59 98 -44 190
39 57 52 61 54 61 30 0 -99 121 -136 246 -76 53 26 141 105 168 151 14 24 2
15 -45 -33 -90 -91 -202 -142 -273 -124 -39 10 -48 36 -31 93 35 118 265 293
265 202 0 -32 -60 -88 -136 -125 -41 -21 -74 -39 -74 -41 0 -10 69 11 120 37
75 38 112 79 113 124 1 46 -14 61 -63 60 -73 -2 -153 -62 -318 -238 -62 -66
-125 -111 -147 -102 -41 16 1 132 90 245 65 83 63 91 -35 91 -44 0 -80 2 -80
5 0 3 14 30 31 60 17 30 28 55 24 55 -33 0 -125 -85 -125 -117 0 -13 5 -23 11
-23 15 0 -34 -83 -93 -156 -67 -84 -120 -120 -153 -108 -21 8 -19 26 10 80 29
54 33 119 10 128 -18 7 -22 -2 -28 -69 -4 -36 -11 -53 -26 -64 -12 -7 -21 -23
-21 -35 0 -23 -48 -75 -87 -95 -51 -26 -93 1 -93 61 0 86 124 248 189 248 20
0 31 -6 34 -17 3 -11 5 -7 6 10 1 21 -5 30 -25 37 -61 23 -132 -23 -215 -142
-82 -116 -188 -206 -229 -193 -16 5 -20 15 -20 46 0 43 45 160 85 220 22 34
28 37 87 43 95 10 111 29 20 22 l-73 -5 31 55 c17 30 40 64 51 75 27 27 21 53
-13 57 -23 3 -31 -4 -61 -60z"/>
<path d="M14745 9260 c-98 -24 -177 -82 -201 -147 -9 -26 -30 -68 -46 -92 -16
-24 -27 -46 -24 -48 2 -3 17 14 32 36 30 45 36 48 55 25 7 -8 30 -24 50 -35
21 -10 44 -28 52 -40 28 -39 -7 -103 -81 -150 -74 -47 -138 -34 -91 18 21 22
21 24 4 15 -61 -31 -67 -82 -11 -82 89 0 206 64 232 127 20 47 7 65 -77 113
-50 28 -65 41 -67 62 -7 57 125 155 224 166 48 5 60 -11 39 -51 -10 -20 -10
-25 0 -21 18 7 37 53 30 74 -3 10 -20 23 -37 29 -34 12 -40 12 -83 1z"/>
</g>
</svg>
